/* XPM */
static char *_4b2aeeb343445e4b070cdaba68a479cOvehJ3MevhRrqcXe[] = {
/* columns rows colors chars-per-pixel */
"64 64 86 1 ",
"  c #0B3AB7",
". c #0435BB",
"X c #0937BB",
"o c #053CBC",
"O c #0B3CBB",
"+ c #123CBA",
"@ c #0C41BC",
"# c #1343BC",
"$ c #1C43BB",
"% c #1C4ABD",
"& c #2246BC",
"* c #2A46BD",
"= c #254BBC",
"- c #2D4ABD",
"; c #324FBD",
": c #2750BD",
"> c #2E53BE",
", c #3056BD",
"< c #3A57BD",
"1 c #335ABE",
"2 c #3B5DBE",
"3 c #3B60BF",
"4 c #4263BD",
"5 c #4966BF",
"6 c #4468BE",
"7 c #4C69BF",
"8 c #5067BE",
"9 c #516BBF",
"0 c #5773BF",
"q c #5D73BF",
"w c #677BBF",
"e c #4764C0",
"r c #4D67C0",
"t c #5063C1",
"y c #5A67C1",
"u c #5069C0",
"i c #5672C0",
"p c #5874C1",
"a c #5978C1",
"s c #657CC1",
"d c #6B7AC1",
"f c #6B81C1",
"g c #7082C3",
"h c #7985C2",
"j c #778BC2",
"k c #7C8CC3",
"l c #848FC5",
"z c #8595C3",
"x c #8A95C5",
"c c #8B9AC4",
"v c #919BC4",
"b c #94A2C4",
"n c #9AA2C4",
"m c #A1A7C6",
"M c #A3ABC6",
"N c #AAAFC6",
"B c #A7B1C7",
"V c #ADB3C6",
"C c #B1B3C7",
"Z c #B3B7C6",
"A c #B7B9C7",
"S c #BBBEC7",
"D c #BEBFC6",
"F c #B1B5C8",
"G c #B7BBC9",
"H c #B8BBC9",
"J c #B8BCC9",
"K c #BEC0C6",
"L c #BFC0C8",
"P c #C1C2C7",
"I c #C3C4C8",
"U c #C6C5C8",
"Y c #C8C7C8",
"T c #CBC9C9",
"R c #CECBC8",
"E c #CECCC8",
"W c #D1CEC8",
"Q c #D3D0C8",
"! c #D7D2C9",
"~ c #D5D2CC",
"^ c #D8D3C9",
"/ c #DBD6CA",
"( c #DED7C9",
") c #D8D3CC",
"_ c #DED8C9",
"` c #E0D9CA",
/* pixels */
"WWWWWWWWWWWWWWWWWWWWWWWWWWWWWWWWWWWWWWWWWWWWWWWWWWWWWWWWWWWWWWWW",
"WWWWWWWWWWWWWWWWWWWWWWWWWWWWWWWWWWWWWWWWWWWWWWWWWWWWWWWWWWWWWWWW",
"WWWWWWWWWWWWWWWWWWWWWWWWWWWWWWWWWWWWWWWWWWWWWWWWWWWWWWWWWWWWWWWW",
"WWWWWWWWWWWWWWWWWWWWWWWWWWWWWWWWWWWWWWWWWWWWWWWWWWWWWWWWWWWWWWWW",
"WWWWWWWWWWWWW!^(((((((((((((((((((((((((((((((((/^!WWWWWWWWWWWWW",
"WWWWWWWWWWWW!Cg7333333333333333333333333333333335gC!WWWWWWWWWWWW",
"WWWWWWWWWWW!b#ooo..............................oooOf!WWWWWWWWWWW",
"WWWWWWWWWWW!io@#7zmmmmmmmmmmMMMMMMMMMMMMMmmmmmc9#@@$TWWWWWWWWWWW",
"WWWWWWWWWWW!8o@c/ENnnnnnnnnvxxxxxxxxxxxxxxxxxnL_m#@OPWWWWWWWWWWW",
"WWWWWWWWWWW!8o$YZ$O-<<O..................o>ty;+l/5o IWWWWWWWWWWW",
"WWWWWWWWWWW!8o&Wl&V^_B+=fcbbbbbbnFJKDDKV0O9!!!s=!wo IWWWWWWWWWWW",
"WWWWWWWWWWW!8o&)dm/^n$k!/!!!!!!!!QWWWQW!/n=p!^M$~wo IWWWWWWWWWWW",
"WWWWWWWWWWW!8o*/sA(AO5!WWWWWWWWWWWWWWWWWW!U=5^N$~wo IWWWWWWWWWWW",
"WWWWWWWWWWW!8o-(pnm+5U!WWWWWWWWWWWWWWWWWWW!Z*qk$~wo IWWWWWWWWWWW",
"WWWWWWWWWWW!8o-_i<$5!WWWWWWWWWWWWWWWWWWWWWW!P%O#~wo IWWWWWWWWWWW",
"WWWWWWWWWWW!8o-_po1QQWWWWWWWWWWWWWWWWWWWWWWW!bO#Two IWWWWWWWWWWW",
"WWWWWWWWWWW!8o-_poz!WWWWWWWWWWWWWWWWWWWWWWWWWR>#Two IWWWWWWWWWWW",
"WWWWWWWWWWW!8o-_p.VWWWWWWWWWWWWWWWWWWWWWWWWWWW1@Uwo IWWWWWWWWWWW",
"WWWWWWWWWWW!8o-_p.ZWWWWWWWWWWWWWWWWWWWWWWWWWWW<@Iwo IWWWWWWWWWWW",
"WWWWWWWWWWW!8o-_p.ZWWWWWWWWWWWWWWWWWWWWWWWWWW!3@Pwo IWWWWWWWWWWW",
"WWWWWWWWWWW!8o-_p.ZWWWWWWWWWWWWWWWWWWWWWWWWWW!4@Pwo IWWWWWWWWWWW",
"WWWWWWWWWWW!8o-_p.ZWWWWWWWWWWWWWWWWWWWWWWWWWW!4@Pwo IWWWWWWWWWWW",
"WWWWWWWWWWW!8o-_p.ZWWWWWWWWWWWWWWWWWWWWWWWWWW!4@Pwo IWWWWWWWWWWW",
"WWWWWWWWWWW!8o-_p.ZWWWWWWWWWWWWWWWWWWWWWWWWWW!4@Pwo IWWWWWWWWWWW",
"WWWWWWWWWWW!8o-_p.FWWWWWWWWWWWWWWWWWWWWWWWWWW!4@Pwo IWWWWWWWWWWW",
"WWWWWWWWWWW!8o-_p.FWWWWWWWWWWWWWWWWWWWWWWWWWW!4@Pwo IWWWWWWWWWWW",
"WWWWWWWWWWW!8o-_p.FWWWWWWWWWWWWWWWWWWWWWWWWWW!4@Pwo IWWWWWWWWWWW",
"WWWWWWWWWWW!8o-_p.FWWWWWWWWWWWWWWWWWWWWWWWWWW!4@Pwo IWWWWWWWWWWW",
"WWWWWWWWWWW!8o-_p.FWWWWWWWWWWWWWWWWWWWWWWWWWW!4@Pwo IWWWWWWWWWWW",
"WWWWWWWWWWW!8o-_p.FWWWWWWWWWWWWWWWWWWWWWWWWWW!4@Pwo IWWWWWWWWWWW",
"WWWWWWWWWWW!8o-_p.FWWWWWWWWWWWWWWWWWWWWWWWWWW!4@Pwo IWWWWWWWWWWW",
"WWWWWWWWWWW!8o-_p.ZWWWWWWWWWWWWWWWWWWWWWWWWWW!4@Pwo IWWWWWWWWWWW",
"WWWWWWWWWWW!po-_p.ZWWWWWWWWWWWWWWWWWWWWWWWWWW!3@Pwo IWWWWWWWWWWW",
"WWWWWWWWWWW!ao-_p.ZWWWWWWWWWWWWWWWWWWWWWWWWWWQ2@Pwo IWWWWWWWWWWW",
"WWWWWWWWWWW!ao-_p.ZWWWWWWWWWWWWWWWWWWWWWWWWWW!3@Pwo IWWWWWWWWWWW",
"WWWWWWWWWWW!ao-_p.ZWWWWWWWWWWWWWWWWWWWWWWWWWWW<@Pwo IWWWWWWWWWWW",
"WWWWWWWWWWW!ao-_p.ZWWWWWWWWWWWWWWWWWWWWWWWWWWW1@Pwo IWWWWWWWWWWW",
"WWWWWWWWWWW!ao-_p.ZWWWWWWWWWWWWWWWWWWWWWWWWWWW1@Pwo IWWWWWWWWWWW",
"WWWWWWWWWWW!ao-_p.ZWWWWWWWWWWWWWWWWWWWWWWWWWWW1@Pwo IWWWWWWWWWWW",
"WWWWWWWWWWW!ao-_p.ZWWWWWWWWWWWWWWWWWWWWWWWWWWW1@Pwo IWWWWWWWWWWW",
"WWWWWWWWWWW!ao-_p.ZWWWWWWWWWWWWWWWWWWWWWWWWWWW1@Pwo IWWWWWWWWWWW",
"WWWWWWWWWWW!ao-_p.CWWWWWWWWWWWWWWWWWWWWWWWWWWW1@Pwo IWWWWWWWWWWW",
"WWWWWWWWWWW!ao-_p.CWWWWWWWWWWWWWWWWWWWWWWWWWWW1@Pwo IWWWWWWWWWWW",
"WWWWWWWWWWW!ao-_p.CWWWWWWWWWWWWWWWWWWWWWWWWWWW<@Pwo IWWWWWWWWWWW",
"WWWWWWWWWWW!ao-_p.VWWWWWWWWWWWWWWWWWWWWWWWWWW!2@Pwo IWWWWWWWWWWW",
"WWWWWWWWWWW!ao-_p.VWWWWWWWWWWWWWWWWWWWWWWWWWW!4@Pwo IWWWWWWWWWWW",
"WWWWWWWWWWW!ao-_p.VWWWWWWWWWWWWWWWWWWWWWWWWWW!4@Pwo IWWWWWWWWWWW",
"WWWWWWWWWWW!ao-_p.n!WWWWWWWWWWWWWWWWWWWWWWWWW!4@Pwo IWWWWWWWWWWW",
"WWWWWWWWWWW!ao-_po5^WWWWWWWWWWWWWWWWWWWWWWWWWT:@Pwo IWWWWWWWWWWW",
"WWWWWWWWWWW!ao-_poOh/WWWWWWWWWWWWWWWWWWWWWWQ`so@Pwo IWWWWWWWWWWW",
"WWWWWWWWWWW!ao-_i25Xn!WWWWWWWWWWWWWWWWWWWW!A7-6@Pwo IWWWWWWWWWWW",
"WWWWWWWWWWW!ao-_ihW<$P!WWWWWWWWWWWWWWWWWWQW>OAn#Pwo UWWWWWWWWWWW",
"WWWWWWWWWWW!ao-(iz/W7=S!WWWWWWWWWWWWWWWWW!q&V/B#Pwo UWWWWWWWWWWW",
"WWWWWWWWWWW!ao*(dd/!W5>T^!^^^/!!!!!!!!!!!j+m^/v$Wwo IWWWWWWWWWWW",
"WWWWWWWWWWW!ao$En+fMMc%%>,<22222222eru85>OaGHc=4/8o UWWWWWWWWWWW",
"WWWWWWWWWWW!po@BW9=$$$%%%%%%%%%%%%%%%%%%%%$$$&2DU%@+PWWWWWWWWWWW",
"WWWWWWWWWWW!so@:v^!QQWWQQWWWWWWWWWWWWWWQQ~~!!!!m>O@$TWWWWWWWWWWW",
"WWWWWWWWWWW!bO@@oO%======>>>>>>>>>>>>=========#oO@oi!WWWWWWWWWWW",
"WWWWWWWWWWWW^iOoo..............................ooX3E!WWWWWWWWWWW",
"WWWWWWWWWWWWW!PZBMMMMMMMMMMMMMMMMMMMMMMMMMMMMMMMMS!QWWWWWWWWWWWW",
"WWWWWWWWWWWWWWWWWWWWWWWWWWWWWWWWWWWWWWWWWWWWWWWWWWWWWWWWWWWWWWWW",
"WWWWWWWWWWWWWWWWWWWWWWWWWWWWWWWWWWWWWWWWWWWWWWWWWWWWWWWWWWWWWWWW",
"WWWWWWWWWWWWWWWWWWWWWWWWWWWWWWWWWWWWWWWWWWWWWWWWWWWWWWWWWWWWWWWW",
"WWWWWWWWWWWWWWWWWWWWWWWWWWWWWWWWWWWWWWWWWWWWWWWWWWWWWWWWWWWWWWWW"
};
