/* XPM */
static char *_95b8e35d8e444e5b1c8845a632e98234WVo2KP4K2hQKvyv[] = {
/* columns rows colors chars-per-pixel */
"64 64 228 2 ",
"   c #0E1B6F",
".  c #151B66",
"X  c #0B1974",
"o  c #09167B",
"O  c #121C78",
"+  c #14227C",
"@  c #1D277A",
"#  c #1F3275",
"$  c #2B3375",
"%  c #333D7E",
"&  c #49507A",
"*  c #585C7D",
"=  c #9B060B",
"-  c #970712",
";  c #931316",
":  c #A4030C",
">  c #A9030D",
",  c #AB0A0E",
"<  c #A50514",
"1  c #AE0513",
"2  c #A40D13",
"3  c #AD0C14",
"4  c #A8061A",
"5  c #AC0B1B",
"6  c #B00511",
"7  c #B00912",
"8  c #B10F1A",
"9  c #A51314",
"0  c #A71717",
"q  c #AB141B",
"w  c #8E1620",
"e  c #871D27",
"r  c #8C1D23",
"t  c #AD1422",
"y  c #822124",
"u  c #AC2C31",
"i  c #BC473E",
"p  c #9B5054",
"a  c #A64347",
"s  c #B74947",
"d  c #B54F5A",
"f  c #A35358",
"g  c #B0615F",
"h  c #9F5D64",
"j  c #A55B61",
"k  c #C24D4D",
"l  c #C46968",
"z  c #C5736D",
"x  c #C9726B",
"c  c #CA7972",
"v  c #D5877D",
"b  c #061B84",
"n  c #071887",
"m  c #03128B",
"M  c #0B1D8C",
"N  c #111F8A",
"B  c #081C97",
"V  c #041D9C",
"C  c #0E2083",
"Z  c #0D238B",
"A  c #112384",
"S  c #16278B",
"D  c #14248C",
"F  c #1A3089",
"G  c #0B2294",
"H  c #0C2996",
"J  c #05259B",
"K  c #09269B",
"L  c #0B239C",
"P  c #03299D",
"I  c #132594",
"U  c #162997",
"Y  c #12309C",
"T  c #2C3582",
"R  c #293886",
"E  c #323D8F",
"W  c #2B3E94",
"Q  c #263599",
"!  c #051DA6",
"~  c #0424A3",
"^  c #0B25A4",
"/  c #042CA4",
"(  c #0A2AA6",
")  c #0425AB",
"_  c #032CAC",
"`  c #092CAB",
"'  c #1327A4",
"]  c #152BA2",
"[  c #0B33A5",
"{  c #0433AD",
"}  c #0C35AC",
"|  c #043BAF",
" . c #093AAD",
".. c #1934A8",
"X. c #022EB2",
"o. c #082CB4",
"O. c #0234B3",
"+. c #0F36B4",
"@. c #023AB5",
"#. c #093EB4",
"$. c #2535A6",
"%. c #384585",
"&. c #2F439D",
"*. c #374597",
"=. c #384394",
"-. c #0341B6",
";. c #1743B3",
":. c #2942AA",
">. c #3848AA",
",. c #3950A7",
"<. c #2C48B2",
"1. c #3747B1",
"2. c #3954B5",
"3. c #4A558E",
"4. c #465398",
"5. c #55638C",
"6. c #556399",
"7. c #626B9B",
"8. c #6D7391",
"9. c #4655A5",
"0. c #4D59A9",
"q. c #465AB4",
"w. c #5367AD",
"e. c #5468B6",
"r. c #5166BB",
"t. c #5A74B7",
"y. c #656EA8",
"u. c #6977AA",
"i. c #757FA8",
"p. c #6575B7",
"a. c #4D67C0",
"s. c #5B77C7",
"d. c #667CC6",
"f. c #C67986",
"g. c #7F8597",
"h. c #7E87A4",
"j. c #6982B3",
"k. c #7889B5",
"l. c #7283BA",
"z. c #6B8ACB",
"x. c #7686C8",
"c. c #7C91D6",
"v. c #BA8B8E",
"b. c #BD8D90",
"n. c #BD9491",
"m. c #8E96AC",
"M. c #8E94B2",
"N. c #8994BA",
"B. c #929AB5",
"V. c #99A4BB",
"C. c #A9B0B8",
"Z. c #D2898F",
"A. c #C49986",
"S. c #CA9C8C",
"D. c #CBA399",
"F. c #D3A89C",
"G. c #C19EA2",
"H. c #CDA5AB",
"J. c #D2AEA5",
"K. c #D7B2A8",
"L. c #C3BBB5",
"P. c #C5BCB8",
"I. c #C8BCB8",
"U. c #D3BBB4",
"Y. c #DABBB2",
"T. c #D0BABB",
"R. c #CCC3BB",
"E. c #CBC9BF",
"W. c #8594C6",
"Q. c #98A7C9",
"!. c #9CACC9",
"~. c #90AAD2",
"^. c #9CB2D7",
"/. c #A6AECD",
"(. c #A7B3C8",
"). c #AAB4CB",
"_. c #B0BDC5",
"`. c #B9BFC3",
"'. c #B2BACB",
"]. c #A4B5D5",
"[. c #AAB8D8",
"{. c #B3BDD4",
"}. c #B7BED6",
"|. c #8EA6E3",
" X c #9AB8E5",
".X c #AABAE7",
"XX c #BDC4C5",
"oX c #B2C3CF",
"OX c #BCC6C9",
"+X c #BCC6CB",
"@X c #AFC2D1",
"#X c #B5C4D2",
"$X c #BCC5D3",
"%X c #BDCAD3",
"&X c #B6C7DA",
"*X c #B5CADD",
"=X c #BDCCDA",
"-X c #BCD0DA",
";X c #B4C6E4",
":X c #B6CDE6",
">X c #B4CCEB",
",X c #C2C6C5",
"<X c #CCC7C2",
"1X c #C6C9C6",
"2X c #CDCDC5",
"3X c #CECEC6",
"4X c #C2C7CA",
"5X c #C4C9CA",
"6X c #CBCDC9",
"7X c #D2C7C3",
"8X c #DAC7C7",
"9X c #D1CBC5",
"0X c #D0CDC6",
"qX c #D0CEC7",
"wX c #DCCCCD",
"eX c #CCD0CF",
"rX c #DFD0CF",
"tX c #C3CCD4",
"yX c #C9CED6",
"uX c #C3CCD8",
"iX c #DFCED1",
"pX c #CAD2D4",
"aX c #CBD4DB",
"sX c #E4C8CB",
"dX c #EAC8D0",
"fX c #C0CEEA",
"gX c #CAD4E2",
"hX c #C1D5F2",
/* pixels */
"2X2X2X2X2X2X2X2X2X2X2X2X2X2X2X2X2X2X2X2X2X2X2X2X2X2X2X2X2X2X2X2X2X2X2X2X2X2X2X2X2X2X2X2X2X2X2X2X2X2X2X2X2X2X2X2X2X2X2X2X2X2X2X2X",
"2X2X2X2X2X2X2X2X2X2X2X2X2X2X2X2X2X2X2X2X2X2X2X2X2X2X2X2X2X2X2X2X2X2X2X2X2X2X2X2X2X2X2X2X2X2X2X2X2X2X2X2X2X2X2X2X2X2X2X2X2X2X2X2X",
"2X2X2X2X2X2X2X2X2X2X2X2X2X2X2X2X2X2X2X2X2X2X2X2X2X2X2X2X2X2X2X2X2X2X2X2X2X2X2X2X2X2X2X2X2X2X2X2X2X2X2X2X2X2X2X2X2X2X2X2X2X2X2X2X",
"2X2X2X2X2X2X2X2X2X2X2X2X2X2X2X2X2X2X2X2X2X2X2X2X2X2X2X2X2X2X2X2X2X2X2X2X2X2X2X2X2X2X2X2X2X2X2X2X2X2X2X2X2X2X2X2X2X2X2X2X2X2X2X2X",
"2X2X2X2X2X2X2X2X2X2X2X2X2X2X2X2X2X2X2X2X2X2X2X2X2X2X2X2X2X2X2X2X2X2X2X2X2X2X2X2X<X<X<X2X2X2X2X2X2X2X<X2X2X2X2X2X2X2X2X2X2X2X2X2X",
"2X2X2X2X2X2X2X2X2X2X2X2X2X2X2X2X2X2X2X2X2X2X2X2X2X2X0X0X0X0X0X0X0X2X2X2X2X2X<X0X8XwXwXwXwXwXwXwXiXrXiX9X9X0X2X2X2X2X2X2X2X2X2X2X",
"2X2X2X2X2X2X2X2X2X2X2X2X2X2X2X2X2X2X2X2X0X0X0X0X0X0X0X0X0X0X0X0X0X0X2X2X0X2X<Xn.y r r r w w w w r r e p 9X9X2X2X2X2X2X2X2X2X2X2X",
"2X2X2X2X2X2X2X2X2X2X2X2X2X2X2X0X0X2X2X2X0X0X0X0X0X0X0X0X0X0X0X0X0X0X0X0X2X<X<XA.0 2 4 4 5 5 5 5 q q t a wX7X0X2X2X2X2X2X2X2X2X2X",
"2X2X2X2X2X2X2X2X2X2X2X2X2X2X2X0X0X2X2X0X0X0X0X0X2X2X2X2X2X0X0X0X0X0X0X0X2X<X<XA.2 > > q q q 9 9 9 9 0 a 8X<X0X2X2X2X2X2X2X2X2X2X",
"2X2X2X2X2X2X2X2X2X2X2X2X2X2X0X0X0X2X2X0X0X0X0X0X2X2X2X2X2X0X0X0X0X0X0X0X<X<XR.S.2 1 = Z.Y.Y.Y.Y.Y.K.K.Y.7X7X2X0X2X2X2X2X2X2X2X2X",
"2X2X2X2X2X2X2X2X2X2X2X2X2X2X0X0X0X0X0X0X0X0X0X0X0X0X2X2X2X2X2X0X0X0X2X2X<X<XR.S.9 7 = Z.L.L.L.L.P.P.I.R.<X<X2X0X0X2X2X2X2X2X2X2X",
"2X2X2X2X2X2X2X2X2X2X2X2X2X2X0X0X0X0X0X0X0X0X0X0X0X0X2X2X2X2X2X0X0X0X2X2X<X<XR.S.0 7 > d b.v.b.v.b.b.G.7X2X<X2X0X0X0X2X2X2X2X2X2X",
"2X2X2X2X2X2X2X2X2X2X2X2X2X2X0X0X0X0X0X0X0X0X0X0X0X0X2X2X2X2X2X0X0X0X2X2X<X<XR.S.0 3 1 : = = - = - - r dX<X<X2X0X2X2X2X2X2X2X2X2X",
"2X2X2X2X2X2X2X2X2X2X2X2X2X2X0X0X0X2X2X0X0X0X0X0X0X0X2X2X2X2X2X0X0X0X2X<X<X<XR.S.9 1 1 6 1 3 3 3 3 8 u dX<X<X2X2X2X2X2X2X2X2X2X2X",
"2X2X2X2X2X2X2X2X2X2X2X2X2X2X0X0X0X2X2X0X0X0X0X0X0X0X2X2X2X2X2X0X0X0X2X<X<X<XR.F.9 1 > u k s i i i u s sX<X<X2X2X2X2X2X2X2X2X2X2X",
"2X2X2X2X2X2X2X2X2X2X2X2X2X2X0X0X2X2X2X2X2X2X2X2X2X2X2X2X2X0X0X0X0X2X2X2X<X<XR.F.9 > = Z.U.U.U.U.U.U.U.R.<X<X2X0X0X2X2X2X2X2X2X2X",
"2X2X2X2X2X2X2X2X2X2X2X2X2X2X0X2X2X2X2X0X0X0X2X2X2X2X2X2X2X2X2X0X2X2X2X2X2X<XR.F.9 1 : f.L.P.P.I.R.R.R.<X<X<X2X0X0X2X2X2X2X2X2X2X",
"2X2X2X2X2X2X2X2X2X2X2X2X2X2X2X2X2X0X0X0X0X0X2X2X2X2X2X2X2X2X2X2X2X2X2X2X2X<XR.F.9 6 < f.<X7X7X7X9X9X9X9X2X2X2X2X2X2X2X2X2X2X2X2X",
"2X2X2X2X2X2X2X2X2X2X2X2X2X2X2X2X2X0X0X0X0X0X2X2X2X2X2X2X2X2X2X2X2X2X2X2X2X<XR.K.0 6 1 u f p f f f j j h T.<X2X2X2X2X2X2X2X2X2X2X",
"2X2X2X2X2X2X2X2X2X2X2X2X2X2X2X2X2X0X0X2X2X2X2X2X2X2X2X2X2X2X2X2X2X2X2X2X2X<XR.K.9 7 6 1 4 3 < < < q 0 ; H.<X2X2X2X2X2X2X2X2X2X2X",
"2X2X2X2X2X2X2X2X2X2X2X2X2X2X0X0X0X0X0X2X2X2X2X2X2X2X2X2X2X2X2X2X2X2X2X2X2X<XR.D.0 , , 3 5 , , 3 3 5 q - H.2X2X2X2X2X2X2X2X2X2X2X",
"2X2X2X2X2X2X2X2X2X2X2X2X2X2X0X0X0X0X0X2X2X2X2X2X2X2X2X2X2X2X2X2X2X2X2X2X2X<XE.J.z v v c z c x z l l l g T.2X2X2X2X2X2X2X2X2X2X2X",
"2X2X2X2X2X2X2X2X2X2X2X2X2X2X2X0X2X2X2X2X2X2X2X2X2X2X2X2X2X2X2X2X2X2X2X2X2X2X<X<X7X7X7X7XE.E.E.7X9X9X0X2X2X2X2X2X2X2X2X2X2X2X2X2X",
"2X2X2X2X2X2X2X2X2X2X2X2X2X2X2X0X2X2X2X2X2X2X1X1X4X,X1X1X2X2X2X2X2X2X2X2X2X2X2X2X2X2X2X2X<X<X<X<X<X2X2X2X2X2X2X2X2X2X2X2X2X2X2X2X",
"2X2X2X2X2X2X2X2X2X2X2X2X2X2X2X2X2X2X2X2X2X,X6X'.yX5XOX4X1X2X2X2X2X2X2X2X2X2X2X2X2X2X2X2X2X2X2X2X2X2X2X2X2X2X2X2X2X2X2X2X2X2X2X2X",
"2X2X2X2X2X2X2X2X2X2X2X2X2X2X2X2X2X2X2X2X1X1X* . T i.$X4X4X1X2X2X2X2X2X2X2X2X2X2X2X2X2X2X2X2X2X2X2X2X2X2X2X2X2X2X2X2X2X2X2X2X2X2X",
"2X2X2X2X2X2X2X2X2X2X2X2X2X2X2X2X2X2X2X1X,X,Xh.X H H R #XXXXX,X1X2X2X2X2X2X2X2X2X2X2X2X2X2X2X2X2X2X2X2X2X2X2X2X2X2X2X2X2X2X2X2X2X",
"2X2X2X2X2X2X2X2X2X2X2X2X2X2X2X2X2X2X2X1X,XXXtX6.J { ^ 9.N.V.uX,X1X1X2X2X2X2X2X2X2X2X2X2X2X2X2X2X2X2X2X2X2X2X2X2X2X2X2X2X2X2X2X2X",
"2X2X2X2X2X2X2X2X2X2X2X2X2X2X2X2X2X2X,X,XXXXXtXp.~ O.{ / b o T }.,X1X1X2X2X2X2X2X2X2X2X2X2X2X2X2X2X2X2X2X2X2X2X2X2X2X2X2X2X2X2X2X",
"2X2X2X2X2X2X2X2X2X2X2X2X2X2X2X2X1X1X6XtX'.m.6.H O.@.@.O.{ _ B y.tX1X1X2X2X2X2X2X2X2X2X2X2X2X2X2X2X2X2X2X2X2X2X2X2X2X2X2X2X2X2X2X",
"2X2X2X2X2X2X2X2X2X2X2X2X2X2X2X2X,X1X* $ X b ( O.@.@.@.O.) ] q.[.OX,X1X1X2X2X2X2X2X2X2X2X2X2X2X2X2X2X2X2X2X2X2X2X2X2X2X2X2X2X2X2X",
"2X2X2X2X2X2X2X2X2X2X2X2X2X2X2X2X1X4Xh.O V { O.@.@.@.) <.c.[.oXXXXXXX,X1X2X2X2X2X2X2X2X2X2X2X2X2X2X2X2X2X2X2X2X2X2X2X2X2X2X2X2X2X",
"2X2X2X2X2X2X2X2X2X2X2X2X2X2X2X2X,XXX$XfXt.P } ` O.O.] >X[.!.Q.!.(.'.4X,X1X2X2X2X2X2X2X2X2X2X2X2X2X2X2X2X2X2X2X2X2X2X2X2X2X2X2X2X",
"2X2X2X2X2X2X2X2X2X2X2X2X2X2X2X,X,X4XaXi.@ :.|.e.~ O.;.U D M G Z A O y.aX4X1X2X2X2X2X2X2X2X2X2X2X2X2X2X2X2X2X2X2X2X2X2X2X2X2X2X2X",
"2X2X2X2X2X2X2X2X2X2X2X2X2X2X,X,XXXg.& 4.c.>X^.,.) O.{ ^ ..1.e.9.M P M %.).,X2X2X2X2X2X2X2X2X2X2X2X2X2X2X2X2X2X2X2X2X2X2X2X2X2X2X",
"2X2X2X2X2X2X2X2X2X2X2X2X2X2X,XeX5.  >X>Xk.# b _ O.O.! |.>X&X{.:XS / / ( =.gX2X2X2X2X2X2X2X2X2X2X2X2X2X2X2X2X2X2X2X2X2X2X2X2X2X2X",
"2X2X2X2X2X2X2X2X2X2X2X2X2X1X,XC.  Y W o M B ' ^ _ _ ] ~./.#X_.V.b { { ( Q gX2X2X2X2X2X2X2X2X2X2X2X2X2X2X2X2X2X2X2X2X2X2X2X2X2X2X",
"2X2X2X2X2X2X2X2X2X2X2X2X2X2X,Xm.M } <.d.r.d. Xz.~ _ ! m b l.$X7.V O._ ^ 0.uX2X2X2X2X2X2X2X2X2X2X2X2X2X2X2X2X2X2X2X2X2X2X2X2X2X2X",
"2X2X2X2X2X2X2X2X2X2X2X2X2X2X,Xm.G ^ x.*X&Xu.&.} X.O.X.) ~ 9.*XT X.X.~ q.=X4X2X2X2X2X2X2X2X2X2X2X2X2X2X2X2X2X2X2X2X2X2X2X2X2X2X2X",
"2X2X2X2X2X2X2X2X2X2X2X2X2X2X,Xh.M ( d.5.+ m ) X.O.O.X.~ >.^.(.A X.X.$.fXOX,X2X2X2X2X2X2X2X2X2X2X2X2X2X2X2X2X2X2X2X2X2X2X2X2X2X2X",
"2X2X2X2X2X2X2X2X2X2X2X2X2X2X,X(.o _ r.j.t.q.1.V X.X.! s.;XoX%.P _ ! x.OXXX1X2X2X2X2X2X2X2X2X2X2X2X2X2X2X2X2X2X2X2X2X2X2X2X2X2X2X",
"2X2X2X2X2X2X2X2X2X2X2X2X2X2X,X5X@ { $.fX@X-Xl.V X.X.) t.].k.b _ _ $.;XXX,X1X2X2X2X2X2X2X2X2X2X2X2X2X2X2X2X2X2X2X2X2X2X2X2X2X2X2X",
"2X2X2X2X2X2X2X2X2X2X2X2X2X2X1X,XN.H ' .X*Xk.L X.@.O.O.~ C H X.O.U [.OX4X,X1X2X2X2X2X2X2X2X2X2X2X2X2X2X2X2X2X2X2X2X2X2X2X2X2X2X2X",
"2X2X2X2X2X2X2X2X2X2X2X2X2X2X1XXXOX% G 2.W B O.@.@.O.) 1.Y ~ ) ..~.$X,X,X1X6X2X2X2X2X2X2X2X2X2X2X2X2X2X2X2X2X2X2X2X2X2X2X2X2X2X2X",
"2X2X2X2X2X2X2X2X2X2X2X2X2X2X1X,X,X$X@ ~ _ { O.@.@._ a.hX~.N >..X%X4X5X1X1X6X2X2X2X2X2X2X2X2X2X2X2X2X2X2X2X2X2X2X2X2X2X2X2X2X2X2X",
"2X2X2X2X2X2X2X2X2X2X2X2X2X2X2X1X,X4X(.R >.V O.@.@.O.$.!.-X).#XOXXX5X,X1X1X6X2X2X2X2X2X2X2X2X2X2X2X2X2X2X2X2X2X2X2X2X2X2X2X2X2X2X",
"2X2X2X2X2X2X2X2X2X2X2X2X2X2X2X1X1XXXXX=X[.G O.@.@.@._ b 4.].%XXXXX,X,X1X1X1X2X6X6X2X2X2X2X2X2X2X2X2X2X2X2X2X2X2X2X2X2X2X2X2X2X2X",
"2X2X2X2X2X2X2X2X2X2X2X2X2X2X2X1X1XXXOXB.+ o...$._ @.` G J G E N.aX4XXX,X,X1X1X1X2X2X2X2X2X2X2X2X2X2X2X2X2X2X2X2X2X2X2X2X2X2X2X2X",
"2X2X2X2X2X2X2X2X2X2X2X2X2X2X1X1X4XXX5X3./ ^ ^.~.L _ s.~.*.H / M W N.OX5X,X,X,X1X1X2X2X2X2X2X2X2X2X2X2X2X2X2X2X2X2X2X2X2X2X2X2X2X",
"2X2X2X2X2X2X2X2X2X2X2X2X2X2X1X4X,X,XM.Z ^ x.oX!.B / d.#X=XW.b / / L S 6.'.aX6X,X,X1X2X2X2X2X2X2X2X2X2X2X2X2X2X2X2X2X2X2X2X2X2X2X",
"2X2X2X2X2X2X2X2X2X2X2X2X2X2X1X,X5X(.W +.q.*X_.(.I ` r.%XXX%XW.Q / { { K Z =.y.B.}.tX,X1X2X2X2X2X2X2X2X2X2X2X2X2X2X2X2X2X2X2X2X2X",
"2X2X2X2X2X2X2X2X2X2X2X2X2X2X,X`.& + ] P p.#X_.'.D O.2.%XXXOXOX{.F / #.| #.#.} G X 4.}.pX2X2X2X2X2X2X2X2X2X2X2X2X2X2X2X2X2X2X2X2X",
"2X2X2X2X2X2X2X2X2X2X2X2X2X2X1X8.A I d.w.D W.&X@XI { 2.=XOX4XXX5X#Xl.U } #.#.|  .} J o 7.6X2X2X2X2X2X2X2X2X2X2X2X2X2X2X2X2X2X2X2X",
"2X2X2X2X2X2X2X2X2X2X2X2X2X2X1X8.+ W.=X-X=.m &.t.[ | q.tX4X4X1X,XXXtX].4.I ^ L L I *.x.&X1X2X2X2X2X2X2X2X2X2X2X2X2X2X2X2X2X2X2X2X",
"2X2X2X2X2X2X2X2X2X2X2X2X2X2X1XC.B.OXXXXX'.R K  .-.O.r.tX4X1X1X1X4X4X5XtX#X).[.{.{.tXtX5X6X2X2X2X2X2X2X2X2X2X2X2X2X2X2X2X2X2X2X2X",
"2X2X2X2X2X2X2X2X2X2X2X2X2X2X1X1X1X4X4X,X4X(.F { -.{ d.tX1X1X1X1X1X1X1X4X,X4X,X,X,X1X1X2X2X2X2X2X2X2X2X2X2X2X2X2X2X2X2X2X2X2X2X2X",
"2X2X2X2X2X2X2X2X2X2X2X2X2X2X2X2X2X2X2X1X4X4XQ.Z  ...;XOX1X1X1X2X2X2X6X6X2X2X2X6X2X2X2X2X2X2X2X2X2X2X2X2X2X2X2X2X2X2X2X2X2X2X2X2X",
"2X2X2X2X2X2X2X2X2X2X2X2X2X2X2X2X2X2X2X2X1X,XpXu.U ,.uX4X1X2X6X2X2X2X2X2X2X2X2X2X2X2X2X2X2X2X2X2X2X2X2X2X2X2X2X2X2X2X2X2X2X2X2X2X",
"2X2X2X2X2X2X2X2X2X2X2X2X2X2X2X2X2X2X2X2X2X2X,X(.$ /.4X1X6X2X2X2X2X2X2X2X2X2X2X2X2X2X2X2X2X2X2X2X2X2X2X2X2X2X2X2X2X2X2X2X2X2X2X2X",
"2X2X2X2X2X2X2X2X2X2X2X2X2X2X2X2X2X2X2X2X2X2X2X1XyX6X2X2X2X2X2X2X2X2X2X2X2X2X2X2X2X2X2X2X2X2X2X2X2X2X2X2X2X2X2X2X2X2X2X2X2X2X2X2X",
"2X2X2X2X2X2X2X2X2X2X2X2X2X2X2X2X2X2X2X2X2X2X2X2X2X2X2X2X2X2X2X2X2X2X2X2X2X2X2X2X2X2X2X2X2X2X2X2X2X2X2X2X2X2X2X2X2X2X2X2X2X2X2X2X",
"2X2X2X2X2X2X2X2X2X2X2X2X2X2X2X2X2X2X2X2X2X2X2X2X2X2X2X2X2X2X2X2X2X2X2X2X2X2X2X2X2X2X2X2X2X2X2X2X2X2X2X2X2X2X2X2X2X2X2X2X2X2X2X2X",
"2X2X2X2X2X2X2X2X2X2X2X2X2X2X2X2X2X2X2X2X2X2X2X2X2X2X2X2X2X2X2X2X2X2X2X2X2X2X2X2X2X2X2X2X2X2X2X2X2X2X2X2X2X2X2X2X2X2X2X2X2X2X2X2X",
"2X2X2X2X2X2X2X2X2X2X2X2X2X2X2X2X2X2X2X2X2X2X2X2X2X2X2X2X2X2X2X2X2X2X2X2X2X2X2X2X2X2X2X2X2X2X2X2X2X2X2X2X2X2X2X2X2X2X2X2X2X2X2X2X"
};
