/* XPM */
static char *_f469fb3a5bd435fed3dc7cef2b62190WZYciLzTcQH6iMfP[] = {
/* columns rows colors chars-per-pixel */
"64 64 224 2 ",
"   c #721413",
".  c #7C1F24",
"X  c #1B255C",
"o  c #262A5D",
"O  c #2D3456",
"+  c #0A146A",
"@  c #131B6B",
"#  c #041773",
"$  c #0D1973",
"%  c #0B1C7C",
"&  c #0E207A",
"*  c #152A71",
"=  c #1B2779",
"-  c #2A346D",
";  c #293478",
":  c #3D4057",
">  c #3B457C",
",  c #4C557A",
"<  c #840C0D",
"1  c #9C040C",
"2  c #98080B",
"3  c #9B1619",
"4  c #A40206",
"5  c #AA0104",
"6  c #A5030A",
"7  c #AA020B",
"8  c #A90A0E",
"9  c #A70311",
"0  c #AD0512",
"q  c #A30C14",
"w  c #AA0A18",
"e  c #B00412",
"r  c #B10914",
"t  c #B10D1A",
"y  c #A81319",
"u  c #AE211D",
"i  c #871E24",
"p  c #961C23",
"a  c #B71A24",
"s  c #842124",
"d  c #8B2624",
"f  c #942628",
"g  c #992929",
"h  c #913031",
"j  c #963634",
"k  c #993534",
"l  c #9A3838",
"z  c #AA2325",
"x  c #B6242B",
"c  c #8F4843",
"v  c #A94852",
"b  c #B44B56",
"n  c #B34B59",
"m  c #B3565F",
"M  c #B55661",
"N  c #B46C6F",
"B  c #C07C78",
"V  c #BF807C",
"C  c #C8847F",
"Z  c #0B1984",
"A  c #061B89",
"S  c #0A1C8B",
"D  c #051693",
"F  c #031C91",
"G  c #021C9B",
"H  c #082389",
"J  c #162887",
"K  c #11238C",
"L  c #1A338B",
"P  c #022195",
"I  c #0A2795",
"U  c #03259D",
"Y  c #0C219D",
"T  c #052A9C",
"R  c #162B98",
"E  c #0B339D",
"W  c #173399",
"Q  c #273989",
"!  c #293797",
"~  c #23389D",
"^  c #071CA1",
"/  c #0325A4",
"(  c #022BA5",
")  c #092BA5",
"_  c #0226AA",
"`  c #022AAB",
"'  c #142AA4",
"]  c #0333A5",
"[  c #0939A7",
"{  c #0334AC",
"}  c #0D3CAA",
"|  c #1234A5",
" . c #1539A9",
".. c #113BAC",
"X. c #022DB0",
"o. c #0B3EB2",
"O. c #153EB2",
"+. c #283DA8",
"@. c #313CA2",
"#. c #394886",
"$. c #294197",
"%. c #3A4796",
"&. c #0E40AF",
"*. c #1343AD",
"=. c #1C45AC",
"-. c #0F43B4",
";. c #1447B5",
":. c #1C43B2",
">. c #1C4AB1",
",. c #2143AB",
"<. c #2647AA",
"1. c #3347A8",
"2. c #3755AF",
"3. c #2645B1",
"4. c #3D57B6",
"5. c #424989",
"6. c #485388",
"7. c #4C5A96",
"8. c #5F6487",
"9. c #5E6994",
"0. c #646B91",
"q. c #6A739D",
"w. c #737699",
"e. c #727B9A",
"r. c #4754A6",
"t. c #4756AA",
"y. c #495DB7",
"u. c #4E62AB",
"i. c #5567B8",
"p. c #616CA6",
"a. c #6470AB",
"s. c #747CA8",
"d. c #6678BA",
"f. c #677BC0",
"g. c #7F828C",
"h. c #79829E",
"j. c #7C87A8",
"k. c #7885B8",
"l. c #6A81C4",
"z. c #7995D2",
"x. c #868A90",
"c. c #B98A87",
"v. c #818BAA",
"b. c #8894AB",
"n. c #9196A4",
"m. c #8B98B4",
"M. c #939CB7",
"N. c #99A2B3",
"B. c #AFB2B6",
"V. c #C69188",
"C. c #CF9D9B",
"Z. c #CEA6A9",
"A. c #CCB4AD",
"S. c #D5B1AA",
"D. c #CBB6B5",
"F. c #C4BAB7",
"G. c #CCBAB4",
"H. c #C6BEBB",
"J. c #CCBEBC",
"K. c #D2B5B4",
"L. c #DAB9B7",
"P. c #D3BBBD",
"I. c #B7C0BF",
"U. c #C6C5BB",
"Y. c #C6C3BD",
"T. c #CBC5BE",
"R. c #8793C4",
"E. c #8C9FDE",
"W. c #9BA6CA",
"Q. c #91A4D6",
"!. c #A4ADC4",
"~. c #A4B1C5",
"^. c #ADB5C4",
"/. c #ABBAC9",
"(. c #B4BDC2",
"). c #B1BACA",
"_. c #A4B3D8",
"`. c #AABBDA",
"'. c #ADB9E3",
"]. c #D3BCC0",
"[. c #B7C1C4",
"{. c #BCC3C4",
"}. c #B5C2C9",
"|. c #BDC5CA",
" X c #B7C8CE",
".X c #BECACE",
"XX c #BAC6D1",
"oX c #B8C8D7",
"OX c #BAC4DC",
"+X c #BCC9DC",
"@X c #ACC6E6",
"#X c #B6C7E2",
"$X c #BCD2E6",
"%X c #C3C6C4",
"&X c #CBC6C1",
"*X c #C6C9C5",
"=X c #CDCCC4",
"-X c #CCCCC5",
";X c #CDCDC5",
":X c #CFCCC5",
">X c #CECDC5",
",X c #CECEC5",
"<X c #C2C6CA",
"1X c #C4CACA",
"2X c #CCCDC9",
"3X c #D2C4C3",
"4X c #D9C7C7",
"5X c #D0CEC2",
"6X c #D3CAC4",
"7X c #D0CDC4",
"8X c #DACBC6",
"9X c #D9C7C8",
"0X c #DDCDC8",
"qX c #CAD1CF",
"wX c #DBD2C9",
"eX c #C3CBD2",
"rX c #CACDD2",
"tX c #C1C9D9",
"yX c #C5D0D3",
"uX c #CAD1D5",
"iX c #C3D1DC",
"pX c #CCD3DB",
"aX c #D1D8D5",
"sX c #CBD4E4",
/* pixels */
";X;X;X;X;X;X;X;X;X;X;X;X;X;X;X;X;X;X;X;X;X;X;X;X;X;X;X;X;X;X;X;X;X;X;X;X;X;X;X;X;X;X;X;X;X;X;X;X;X;X;X;X;X;X;X;X;X;X;X;X;X;X;X;X",
";X;X;X;X;X;X;X;X;X;X;X;X;X;X;X;X;X;X;X;X;X;X;X;X;X;X;X;X;X;X;X;X;X;X;X;X;X;X;X;X;X;X;X;X;X;X;X;X;X;X;X;X;X;X;X;X;X;X;X;X;X;X;X;X",
";X;X;X;X;X;X;X;X;X;X;X;X;X;X;X;X;X;X;X;X;X;X;X;X;X;X;X;X;X;X;X;X;X;X;X;X;X;X;X;X;X;X;X;X;X;X;X;X;X;X;X;X;X;X;X;X;X;X;X;X;X;X;X;X",
";X;X;X;X;X;X;X;X;X;X;X;X;X;X;X;X;X;X;X;X;X;X;X;X;X;X;X;X;X;X;X;X;X;X;X;X;X;X;X;X;X;X;X;X;X;X;X;X;X;X;X;X;X;X;X;X;X;X;X;X;X;X;X;X",
";X;X;X;X;X;X;X;X;X;X;X;X;X;X;X;X;X;X;X;X;X;X;X;X;X;X;X;X;X;X;X;X;X;X;X;X;X;X;X;X;X;X;X;X;X;X;X;X;X;X;X;X;X;X;X;X;X;X;X;X;X;X;X;X",
";X;X;X;X;X;X;X;X;X;X;X;X;X;X;X;X;X;X;X;X;X;X;X;X;X;X;X;X;X7X7X7X7X7X7X;X;X;X;X;X;X;X;X;X;X;X;X;X;X7X7X7X7X7X;X;X;X;X;X;X;X;X;X;X",
";X;X;X;X;X;X;X;X;X7X7X7X7X7X7X7X;X;X;X;X;X;X;X;X;X;X;X;X7X7X7X7X7X7X;X;X*XT.T.T.&X;X;X;X;X&XT.T.T.&X6X7X7X5X;X;X;X;X;X;X;X;X;X;X",
";X;X;X;X;X;X;X5X5X5X7X7X7X7X7X7X7X;X;X;X;X;X;X;X;X;X;X;X;X7X7X7X;X;X;X;XT.G.G.D.J.T.&X;X&XT.D.K.K.J.6X7X;X7X;X;X;X;X;X;X;X;X;X;X",
";X;X;X;X;X;X7X5X5X5X7X7X7X7X7X7X7X7X;X;X;X;X;X;X;X;X;X;X;X;X7X7X;X;XT.wXc s s . c.3XT.;XT.G.  i s N 8X;X;X;X;X;X;X;X;X;X;X;X;X;X",
";X;X;X;X;X;X7X7X7X;X;X;X;X;X;X7X;X;X;X;X;X;X;X;X;X;X;X;X;X;X7X7X;X;XT.wXj y q q s A.Y.&XU.G.< y y m 8X&X;X;X;X;X;X;X;X;X;X;X;X;X",
";X;X;X;X;X;X7X7X;X;X;X;X;X;X;X;X;X;X;X;X;X;X;X;X;X;X;X;X;X;X;X;X;X;XY.wXj t 6 9 q v 3XY.U.G.< q y M 9X&X;X;X;X;X;X;X;X;X;X;X;X;X",
";X;X;X;X;X;X7X;X;X;X;X;X;X;X;X;X;X;X;X;X;X;X;X;X;X;X;X;X;X;X;X;X;X;XY.wXl t 7 4 6 3 Z.J.U.G.< 8 q M 4X*X;X;X;X;X;X;X;X;X;X;X;X;X",
";X;X;X;X;X7X;X;X;X;X;X;X;X;X;X;X;X;X;X;X;X;X;X;X;X;X;X;X;X;X;X;X;X;XT.wXj r 7 3 2 1 i P.B.G.< 6 w M 8X;X;X;X;X;X;X;X;X;X;X;X;X;X",
";X;X;X;X;X;X;X;X;X;X;X;X;X;X;X;X;X;X;X;X;X;X;X;X;X;X;X;X;X;X;X;X;X;XT.wXk w 7 z 3 6 2 N F.A.  6 9 m 8X;X;X;X;X;X;X;X;X;X;X;X;X;X",
";X;X;X;X;X7X;X;X;X;X;X;X;X;X;X;X;X;X;X;X;X;X;X;X;X;X;X;X;X;X;X;X;X;XY.0Xl 0 7 z m 2 8 p L.Z.< 4 9 n 8X*X;X;X;X;X;X;X;X;X;X;X;X;X",
";X;X;X;X;X7X;X;X;X;X;X;X;X;X;X;X;X;X;X;X;X;X;X;X;X;X;X;X;X;X;X;X;X;XY.0Xk 8 0 g L.f 6 1 l K.< 4 0 b 4X*X;X;X;X;X;X;X;X;X;X;X;X;X",
";X;X;X;X;X7X;X;X;X;X;X;X;X;X;X;X;X;X;X;X;X;X;X;X;X;X;X;X;X;X;X;X;X;XY.0Xk 8 e g P.c.q 6 1 N < 4 7 b 4X*X;X;X;X;X;X;X;X;X;X;X;X;X",
";X;X;X;X;X;X;X;X;X;X;X;X;X;X;X;X;X;X;X;X;X;X;X;X;X;X;X;X;X;X;X;X;X*XT.0Xk 0 0 f D.G.h 4 4 2 2 4 w b 4X*X;X;X;X;X;X;X;X;X;X;X;X;X",
";X;X;X;X;X;X;X;X;X;X;X;X;X;X;X;X;X;X;X;X;X;X;X;X;X;X;X;X;X;X;X;X;X*XY.0Xk 7 7 f P.H.S.3 7 y x 5 7 b 4X*X;X;X;X;X;X;X;X;X;X;X;X;X",
";X;X;X;X;X;X;X;X;X;X;X;X;X;X;X;X;X;X;X;X;X;X;X;X;X;X;X;X;X;X;X;X;X*XY.0Xk e e f P.H.6XN 4 4 5 5 5 n 9X&X;X;X;X;X;X;X;X;X;X;X;X;X",
";X;X;X;X;X;X;X;X;X;X;X;X;X;X;X;X;X;X;X;X;X;X;X;X;X;X;X;X;X;X;X7X;X;XY.0Xk r 0 f P.Y.H.G.d 4 4 5 7 b 4X&X;X;X;X;X;X;X;X;X;X;X;X;X",
";X;X;X;X;X;X;X;X;X;X;X;X;X;X;X;X;X;X;X;X;X;X;X;X;X;X;X;X;X;X7X7X;X;XY.0Xk t r g ].Y.T.&XS.2 4 7 9 v 9X&X;X;X;X;X;X;X;X;X;X;X;X;X",
";X;X;X;X;X;X;X;X;X;X;X;X;X;X;X;X;X;X;X;X;X;X;X;X;X;X;X;X;X;X7X7X;X;X&XwXg a x g P.Y.*XY.8Xc y u x v 8X&X;X;X;X;X;X;X;X;X;X;X;X;X",
";X;X;X;X;X;X;X;X;X;X;X;X;X;X;X;X;X;X;X;X;X;X;X;X;X;X;X;X;X;X7X7X;X;XT.T.V.C C.c.&X*X*XY.T.A.B V.V C.&X&X;X;X;X;X;X;X;X;X;X;X;X;X",
";X;X;X;X;X;X;X;X;X;X;X;X;X;X;X;X;X;X;X;X;X;X;X;X;X;X;X;X;X;X;X*X;X;X;XT.T.T.T.&X*X*X;X;X*XT.T.T.T.&X&X;X;X;X;X;X;X;X;X;X;X;X;X;X",
";X;X;X;X;X;X;X;X;X;X;X;X;X;X;X;X;X;X;X;X;X;X;X;X;X;X;X;X;X;X*X*X;X;X*X;X;X;X;X;X;X;X;X;X*X;X*X*X;X;X;X;X;X;X;X;X;X;X;X;X;X;X;X;X",
";X;X;X;X;X;X;X;X;X;X;X;X;X;X;X;X;X;X;X;X;X;X;X;X;X;X;X;X*X*X*X*X*X;X;X;X*X;X;X;X;X;X;X;X;X;X;X;X;X;X;X;X;X;X;X;X;X;X;X;X;X;X;X;X",
";X;X;X;X;X;X;X;X;X;X;X;X;X;X;X;X;X;X;X;X;X;X;X;X;X;X;X*X*X*X1X%X*X*X;X;X*X;X;X;X;X;X;X;X;X;X;X;X;X;X;X;X;X;X;X;X;X;X;X;X;X;X;X;X",
";X;X;X;X;X;X;X;X;X;X;X;X;X;X;X;X;X;X;X;X;X;X;X;X;X;X;X%XeX: w.|.%X*X*X*X*X;X;X;X;X;X;X;X;X7X;X;X;X;X;X;X;X;X;X;X;X;X;X;X;X;X;X;X",
";X;X;X;X;X;X;X;X;X;X;X;X;X;X;X;X;X;X;X;X;X;X;X;X;X;X*X%XrX- % 7.^.eX{.*X*X*X;X;X;X;X;X;X;X;X;X;X;X;X;X;X;X;X;X;X;X;X;X;X;X;X;X;X",
";X;X;X;X;X;X;X;X;X;X;X;X;X;X;X;X;X;X;X;X;X;X;X;X;X;X*X*X%X0.A I $ 9.XX{.*X*X*X;X;X;X;X;X;X;X;X;X;X;X;X;X;X;X;X;X;X;X;X;X;X;X;X;X",
";X;X;X;X;X;X;X;X;X;X;X;X;X;X;X;X*X*X*X*X*X*X*X*X*X*X*X*X{.^.$ U U A p.<X%X*X*X*X;X;X;X;X;X;X;X;X;X;X;X;X;X;X;X;X;X;X;X;X;X;X;X;X",
";X;X;X;X;X;X;X;X;X;X;X;X;X;X;X;X*X*X*X%X%X%X*X*X*X*X*X*X{.1X#.P ] ( ! sX%X*X*X*X;X;X;X;X;X;X;X;X;X;X;X;X;X;X;X;X;X;X;X;X;X;X;X;X",
";X;X;X;X;X;X;X;X;X;X;X;X;X;X;X;X*X1Xx.eXpXrX%X%X*X*X*X*X%X<Xs.P { ( ~ sX{.*X*X*X;X;X;X;X;X;X;X;X;X;X;X;X;X;X;X;X;X;X;X;X;X;X;X;X",
";X;X;X;X;X;X;X;X;X;X;X;X;X;X;X*X%XqXO @ ; 6.j.<X{.%X*X%X%X{.m.H ( / @.sX[.%X%X*X*X*X;X;X;X;X;X;X;X;X7X7X;X;X;X;X;X;X;X;X;X;X;X;X",
";X;X;X;X;X;X;X;X;X;X;X;XT.;X;X*X%XuX> P T T H 5.eX{.*X%X%X{.N.S ( / t..X(.[.%X%X%X*X*X;X*X;X;X;X;X;X7X7X;X;X7X;X;X;X;X;X;X;X;X;X",
";X;X;X;X;X;X;X;X;X;X;X;X*X*X*X*X%X<X0.F ( ( ( K R.<X{.%X%X{.m.A ` / r.1X(.g.8.w.<X%X*X*X*X;X;X;X;XT.T.T.;X;X;X;X;X;X;X;X;X;X;X;X",
";X;X;X;X;X;X;X;X;X;X;X;X*X*X*X*X%X[.[.@ U ( ( ( %.pX{.{.%X%Xv.P ` / t.s.X # H Z s.rX*X*X*X;X;X;X7XT.T.T.;X;X;X;X;X;X;X;X;X;X;X;X",
";X;X;X;X;X;X;X;X;X;X;X;X*X*X*X*X%X{.|.j.A ` ` ` S OX{.{.{.<Xq.U ` ( P F U ( ( ( % !.%X*X;X;X;X;X;XT.;X;X;X;X;X;X;X;X;X;X;X;X;X;X",
";X;X;X;X;X;X;X;X;X;X;X*X*X*X%X%X{.[.[.^.% ( _ ( S OX(.{.[.1X6.G _ _ ( ` ` ` ` / J !.%X*X;X;X;X;X;X;X;X;X;X;X;X;X;X;X;X;X;X;X;X;X",
";X;X;X;X;X;X;X;X;X;X;X*X%X%X%X<X1X^.b.7.I ` ` ` K iX[.[.(.}.= / ` ` ` ` ` ` Y y._..X%X*X;X;X;X;X;X;X;X;X;X;X;X;X;X;X;X;X;X;X;X;X",
";X;X;X;X;X;X;X;X;X;X;X*X<Xn.v.q.#.& A P ` ` ` _ ! tXI.{.(.5.G ` ` ` ` _ ' i._.iX{.%X*X*X;X;X;X;X;X;XT.T.;X;X;X;X;X;X;X;X;X;X;X;X",
";X;X;X;X;X;X;X;X;X;X;X%X2Xo W T { ( ( ` X.X.` / d. X(.~.@ D G ` ` / D S Q..X|.%X*X*X*X;X;X;X;X;X;X;X;X;X;X;X;X;X;X;X;X;X;X;X;X;X",
";X;X;X;X;X;X;X;X;X;X;X%X1X, F ] ` { ` ` ` / ` / Q.}.M.= @.z.Z / ^ E.`.`.XX|.<X*X*X*X;X;X;X;X;X;X;X;X;X;X;X;X;X;X;X;X;X;X;X;X;X;X",
";X;X;X;X;X;X;X;X;X*X*X*X{.).& ) { { ` Y G ( ( ' `.j.+ y.$X/.$ ( Y '.(.|.{.%X*X*X*X*X;X;X;X;X;X;X;X;X;X;X;X;X;X;X;X;X;X;X;X;X;X;X",
";X;X;X;X;X;X;X;X;X;X*X*X%X<X!.1.E ..4.@XR { { ) %.Z i.oX(.N.# ] R @X{.%X*X*X*X;X*X*X;X;X;X;X;X;X;X;X;X;X;X;X;X;X;X;X;X;X;X;X;X;X",
";X;X;X;X;X;X;X;X;X;X;X;X*X{.|.OXK 4.@XsXQ >.;.>.+.i.iX[.[.h.H } W #X{.<X*X;X*X*X*X;X;X;X;X;X;X;X;X;X;X;X;X;X;X;X;X;X;X;X;X;X;X;X",
";X;X;X;X;X;X;X;X;X;X;X;X;X%X{.e.! @X}.XXJ } o.| l.oX{.{.{.9.E =.~ +X{.%X%X%X*X*X*X*X*X;X;X;X;X;X;X;X;X;X;X;X;X;X;X;X;X;X;X;X;X;X",
";X;X;X;X;X;X;X;X;X;X;X*X*X{.1X- R.XX}.b.W ..O.1.+X|.%X%X|.6.| ..~ +X(.|.%X{.%X<X*X%X*X*X;X;X;X;X;X;X;X;X;X;X;X;X;X;X;X;X;X;X;X;X",
";X;X;X;X;X;X;X;X;X;X;X*X*X%XN.5.$X[.|.6.E O.:.r.XX|.%X%X{.9.| } W '.1X{.1XaXuX).!.eX<X%X*X;X;X;X;X;X;X;X;X;X;X;X;X;X;X;X;X;X;X;X",
";X;X;X;X;X;X;X;X;X;X;X*X%XqX, k.}.}.^.; [ o.) d.|.<X%X%X{.h.R ..[ ~ a.s.p.#.L K K Q M.1X*X*X;X;X;X;X;X;X;X;X;X;X;X;X;X;X;X;X;X;X",
";X;X;X;X;X;X;X;X;X;X;X*X{.<Xo W.eXb.* O.-.;.| R.|.<X*X%X{.XX= T ] [  .| } [ } &.[  .& m.<X*X;X;X;X;X;X;X;X;X;X;X;X;X;X;X;X;X;X;X",
";X;X;X;X;X;X;X;X;X;X;X*X{.n.= a.#.L ,.-.&.*.W tX<X<X*X*X<X1Xm.L ,.*.*.} *.*.;.;.;.>.,.%.sX*X;X;X;X;X;X;X;X;X;X;X;X;X;X;X;X;X;X;X",
";X;X;X;X;X;X;X;X2X;X*X*X<X, !  .*.....G 2.H t.pX%X*X*X*X*X{.|.6.W  .O.:.:.3.3.:.:.,.,.Q +X*X2X;X;X;X;X;X;X;X;X;X;X;X;X;X;X;X;X;X",
";X;X;X;X;X;X;X;X;X;X;X*X%Xe.$.<.,.>.,.i.$XQ d.eX%X*X;X;X*X*X%X|.v.R.k.d.u.r.t.l.d.d.f.k.yX*X2X;X;X2X2X;X;X;X;X;X;X;X;X;X;X;X;X;X",
";X;X;X;X;X;X;X;X;X;X;X;X%X(.= <.3.3.1.#X.X!.).<X*X;X;X;X;X*X*X<X1X1XeXrXpXpXpXuXpXuXyX1X*X*X;X2X2X;X;X;X;X;X;X;X;X;X;X;X;X;X;X;X",
";X;X;X;X;X;X;X;X;X2X;X;X*X2Xj.J K ! W.|.|.<X%X*X;X;X;X;X;X;X;X2X*X*X*X*X*X*X*X*X*X*X*X*X;X2X2X2X;X;X;X;X;X;X;X;X;X;X;X;X;X;X;X;X",
";X;X;X;X;X;X;X;X;X;X;X;X*X*X1X~.W.iX1X*X*X;X;X;X;X;X;X;X;X;X;X;X;X;X;X;X;X;X;X;X;X;X;X;X;X;X;X2X;X;X;X;X;X;X;X;X;X;X;X;X;X;X;X;X",
";X;X;X;X;X;X;X;X;X;X;X;X;X;X*X%X*X*X*X2X2X2X;X;X2X2X;X;X;X;X;X;X;X;X;X;X;X;X;X;X;X;X;X;X;X;X;X;X;X;X;X;X;X;X;X;X;X;X;X;X;X;X;X;X",
";X;X;X;X;X;X;X;X;X;X;X;X;X2X2X;X2X2X2X2X2X2X2X2X2X2X2X;X;X;X;X;X;X;X;X;X;X;X;X;X;X;X;X;X;X;X;X;X;X;X;X;X;X;X;X;X;X;X;X;X;X;X;X;X",
";X;X;X;X;X;X;X;X;X;X;X;X;X;X;X;X;X;X;X;X;X;X2X2X;X;X;X;X;X;X;X;X;X;X;X;X;X;X;X;X;X;X;X;X;X;X;X;X;X;X;X;X;X;X;X;X;X;X;X;X;X;X;X;X",
";X;X;X;X;X;X;X;X;X;X;X;X;X;X;X;X;X;X;X;X;X;X;X;X;X;X;X;X;X;X;X;X;X;X;X;X;X;X;X;X;X;X;X;X;X;X;X;X;X;X;X;X;X;X;X;X;X;X;X;X;X;X;X;X",
";X;X;X;X;X;X;X;X;X;X;X;X;X;X;X;X;X;X;X;X;X;X;X;X;X;X;X;X;X;X;X;X;X;X;X;X;X;X;X;X;X;X;X;X;X;X;X;X;X;X;X;X;X;X;X;X;X;X;X;X;X;X;X;X",
";X;X;X;X;X;X;X;X;X;X;X;X;X;X;X;X;X;X;X;X;X;X;X;X;X;X;X;X;X;X;X;X;X;X;X;X;X;X;X;X;X;X;X;X;X;X;X;X;X;X;X;X;X;X;X;X;X;X;X;X;X;X;X;X"
};
