/* XPM */
static char *b87550614a9c4facfcbf5386de767f24ebUpD6DCyMx746LQ[] = {
/* columns rows colors chars-per-pixel */
"64 64 218 2 ",
"   c #7F1418",
".  c #7E2228",
"X  c #20285E",
"o  c #0D176B",
"O  c #0C1A77",
"+  c #111A74",
"@  c #1D226C",
"#  c #17257A",
"$  c #2A3071",
"%  c #283378",
"&  c #3D4179",
"*  c #66677E",
"=  c #840F12",
"-  c #9B1316",
";  c #9A161A",
":  c #AA0B14",
">  c #B70E18",
",  c #AA131B",
"<  c #A91719",
"1  c #B41215",
"2  c #B4151B",
"3  c #BA171A",
"4  c #BA141D",
"5  c #B31D1E",
"6  c #841D20",
"7  c #9B1821",
"8  c #A61921",
"9  c #B51520",
"0  c #B21B22",
"q  c #B91A25",
"w  c #9B2225",
"e  c #902C2A",
"r  c #922E33",
"t  c #9B3435",
"y  c #A42728",
"u  c #BA2528",
"i  c #A62E32",
"p  c #B62D32",
"a  c #B33A34",
"s  c #C21F2D",
"d  c #BA413E",
"f  c #933B40",
"g  c #8D4F4D",
"h  c #9A5357",
"j  c #BB4743",
"k  c #AF5054",
"l  c #AE5D67",
"z  c #9B6868",
"x  c #B56C68",
"c  c #AC7075",
"v  c #A97578",
"b  c #C15851",
"n  c #C8726E",
"m  c #BD877F",
"M  c #D3887D",
"N  c #061787",
"B  c #031B8E",
"V  c #131D89",
"C  c #071A95",
"Z  c #041A9C",
"A  c #0B2586",
"S  c #182688",
"D  c #0C2394",
"F  c #05249D",
"G  c #0A259C",
"H  c #042B9C",
"J  c #09289A",
"K  c #142795",
"L  c #173091",
"P  c #16349B",
"I  c #273585",
"U  c #313D8A",
"Y  c #263A97",
"T  c #031CA1",
"R  c #0424A3",
"E  c #0628A5",
"W  c #0B2BA4",
"Q  c #042BAB",
"!  c #0C2DAB",
"~  c #162BA5",
"^  c #0532A5",
"/  c #0534AC",
"(  c #0B33AB",
")  c #1733A7",
"_  c #0533B3",
"`  c #0C34B2",
"'  c #043BB4",
"]  c #0A39B4",
"[  c #053CB9",
"{  c #153CB6",
"}  c #2739A6",
"|  c #253EB3",
" . c #324094",
".. c #38469A",
"X. c #0243BB",
"o. c #0A42BA",
"O. c #0947B9",
"+. c #024ABE",
"@. c #1446BA",
"#. c #164ABD",
"$. c #1B50BE",
"%. c #2C45A7",
"&. c #3244A7",
"*. c #3447B2",
"=. c #3D61AC",
"-. c #454C8A",
";. c #49558A",
":. c #4C548C",
">. c #535785",
",. c #444E93",
"<. c #4C5996",
"1. c #5A649B",
"2. c #7A7D8B",
"3. c #747C9F",
"4. c #4959A9",
"5. c #475AB4",
"6. c #5562AA",
"7. c #4460BC",
"8. c #5867B8",
"9. c #5C73B5",
"0. c #6479B1",
"q. c #0845C0",
"w. c #034DC1",
"e. c #0B4AC2",
"r. c #134EC1",
"t. c #0453C5",
"y. c #0C53C4",
"u. c #0859C7",
"i. c #1C57C2",
"p. c #245DC6",
"a. c #526AC3",
"s. c #677BC5",
"d. c #7C83A9",
"f. c #7686BA",
"g. c #6F82C7",
"h. c #7386C6",
"j. c #7B92C8",
"k. c #788BD2",
"l. c #7C97D9",
"z. c #B48688",
"x. c #BC9B9C",
"c. c #8A90A9",
"v. c #828EB3",
"b. c #8B95B7",
"n. c #949CB3",
"m. c #9BA4BA",
"M. c #A5AEBE",
"N. c #B2B5BD",
"B. c #C28A89",
"V. c #D8988D",
"C. c #C79CA2",
"Z. c #CDA4A5",
"A. c #D6B7AB",
"S. c #CBB9B7",
"D. c #C5BBB9",
"F. c #CBBDBC",
"G. c #DBBDB5",
"H. c #D6BBBC",
"J. c #E8B3AD",
"K. c #E6BEB7",
"L. c #B8C1BF",
"P. c #CBC4BE",
"I. c #D3C4BF",
"U. c #DDC1BD",
"Y. c #E4C4BB",
"T. c #8A9AC6",
"R. c #919FCE",
"E. c #8BA0CE",
"W. c #97A9CA",
"Q. c #89A3D9",
"!. c #92A8D5",
"~. c #A6ADC5",
"^. c #A9B3C6",
"/. c #B4BAC4",
"(. c #BABFC7",
"). c #B3BCCA",
"_. c #A8B9D7",
"`. c #B3BED5",
"'. c #9EB4E6",
"]. c #AABEE4",
"[. c #D1BFC2",
"{. c #E7BBC1",
"}. c #B4C1C4",
"|. c #BDC4C5",
" X c #B6C5CC",
".X c #BCC4CA",
"XX c #BDCACC",
"oX c #AFC3DE",
"OX c #B4C3D5",
"+X c #BAC5D2",
"@X c #BECAD4",
"#X c #B3C5D8",
"$X c #BBC6DA",
"%X c #BCCADD",
"&X c #9FC5EF",
"*X c #B5CBE3",
"=X c #BCD3EA",
"-X c #C2C6C5",
";X c #CBC6C1",
":X c #C6C9C6",
">X c #CDCDC5",
",X c #C1C6C9",
"<X c #C4CAC9",
"1X c #CDCDC8",
"2X c #D3C4C2",
"3X c #D0CDC6",
"4X c #D0CEC6",
"5X c #DBC9C7",
"6X c #D0CEC9",
"7X c #D6CCCB",
"8X c #D0D0C7",
"9X c #D1D0C8",
"0X c #C4CDD2",
"qX c #C3CDDC",
"wX c #CBD4D9",
"eX c #E2C9C6",
"rX c #E1D1CC",
"tX c #C1D6E6",
/* pixels */
">X>X>X>X>X>X>X>X>X>X>X>X>X>X>X>X>X>X>X>X>X>X>X>X>X>X>X>X>X>X>X>X>X>X>X>X>X>X>X>X>X>X>X>X>X>X>X>X>X>X>X>X>X>X>X>X>X>X>X>X>X>X>X>X",
">X>X>X>X>X>X>X>X>X>X>X>X>X>X>X>X>X>X>X>X>X>X>X>X>X>X>X>X>X>X>X>X>X>X>X>X>X>X>X>X>X>X>X>X>X>X>X>X>X>X>X>X>X>X>X>X>X>X>X>X>X>X>X>X",
">X>X>X>X>X>X>X>X>X>X>X>X>X>X>X>X>X>X>X>X>X>X>X>X>X>X>X>X>X>X>X>X>X>X>X>X>X>X>X>X>X>X>X>X>X>X>X>X>X>X>X>X>X>X>X>X>X>X>X>X>X>X>X>X",
">X>X>X>X>X>X>X>X>X>X>X>X>X>X>X>X>X>X>X8X8X6X6X6X6X6X1X1X1X>X>X>X>X>X>X>X>X>X>X>X>X>X>X>X>X>X>X>X>X>X>X>X>X>X>X>X>X>X>X>X>X>X>X>X",
">X>X>X>X>X>X>X>X>X>X>X>X>X>X4X4X>X>X>X4X8X6X1X1X1X1X1X1X1X>X>X>X>X>X>X>X6X6X>X>X>X>X>X>X>X>X>X>X>X>X>X>X>X>X>X>X>X>X>X>X>X>X>X>X",
">X>X>X>X>X>X>X>X>X>X>X>X>X>X>X>X>X>X>X>X>X>X1X1X6X6X>X>X>X>X>X>X>X4X4X4X4X4X>X>X4X>X;X;X;X;X>X>X>X>X>X>X>X>X>X>X>X>X>X>X>X>X>X>X",
">X>X>X>X>X>X>X>X>X>X>X>X1X1X1X>X>X>X>X>X8X4X4X4X4X4X8X4X4X>X>X4X4X4X4X4X4X>X>X;X;X7X7X2X2X5X7X>X;X>X>X4X>X>X>X>X>X>X>X>X>X>X>X>X",
">X>X>X>X>X>X>X>X>X>X>X>X1X1X>X>X>X>X>X8X8X8X4X4X4X4X8X8X4X>X>X>X4X4X4X4X>X>XP.P.x.h e     6 f z.H.;X>X>X4X4X1X>X>X>X>X>X>X>X>X>X",
">X>X>X>X>X>X>X>X>X>X>X>X>X>X>X>X>X4X4X8X>X>X>X>X4X4X4X4X>X>X>X>X>X4X4X>X>XP.I.g 7 8 0 q u 0 0 < r S.;X>X>X4X4X4X>X>X>X>X>X>X>X>X",
">X>X>X>X>X>X>X>X>X>X>X>X>X>X>X>X>X6X6X8X>X>X>X>X4X4X4X4X>X>X>X>X>X>X>X>X>X;Xz - 5 9 5 p d u 2 2 0 r H.;X>X4X4X4X>X>X>X>X>X>X>X>X",
">X>X>X>X>X>X>X>X>X>X>X>X4X4X4X4X4X4X4X6X>X4X4X4X4X4X>X>X>X>X>X>X>X>X>X>XP.2Xt 5 u p J.K.G.K.b : q 8 c ;X>X4X4X4X4X>X>X>X>X>X>X>X",
">X>X>X>X>X>X>X>X>X>X>X>X4X4X4X4X4X4X4X4X4X4X4X4X4X4X>X>X>X>X>X>X>X>X>X>XP.eXw 5 1 k H.D.D.D.A.y 0 q l P.;X>X4X4X4X>X>X>X>X>X>X>X",
">X>X>X>X>X>X>X>X>X>X>X>X4X4X4X4X4X4X4X4X4X4X4X4X4X>X>X>X>X>X>X>X>X>X>X>XP.eXw 9 > , B.eX7X[.S.Y.Y.Y.eX;X>X>X>X4X4X>X>X>X>X>X>X>X",
">X>X>X>X>X>X>X>X>X>X>X4X6X4X4X4X4X4X4X4X4X4X4X4X>X>X>X>X>X>X>X>X>X>X>X>X;XI.k 2 4 4 : ; t h c x.I.F.P.;X>X4X>X4X4X>X>X>X>X>X>X>X",
">X>X>X>X>X>X>X>X>X>X>X4X6X4X4X4X4X4X4X4X4X4X4X4X>X>X>X>X>X>X>X>X>X>X>X>X;XP.G.e q 4 4 3 3 1 , = . C.2X;X>X>X>X4X4X>X>X>X>X>X>X>X",
">X>X>X>X>X>X>X>X>X>X>X>X4X4X4X4X4X4X4X4X4X4X4X4X>X>X>X>X>X>X>X>X>X>X>X>X>X;XP.A.M d 2 1 1 1 > 9 2 7 v 2X;X>X>X4X>X>X>X>X>X>X>X>X",
">X>X>X>X>X>X>X>X>X>X>X>X4X4X4X4X4X4X4X4X4X4X4X4X>X>X>X>X>X>X>X>X>X>X>X>X>X;XP.F.2XU.G.V.n b u 2 > 3 y 5X;X>X1X4X>X>X>X>X>X>X>X>X",
">X>X>X>X>X>X>X>X>X>X>X>X4X4X4X4X4X4X4X4X4X4X>X>X>X>X>X>X>X>X>X>X>X>X>X>XP.P.v z z C.D.F.F.H.J.j 1 4 < {.;X>X1X>X>X>X>X>X>X>X>X>X",
">X>X>X>X>X>X>X>X>X>X>X>X4X4X4X4X4X4X4X4X4X4X>X>X>X>X>X>X>X>X>X>X>X>X>X>XP.G.= - - k [.D.D.D.F.x , 4 < {.;X>X1X>X>X>X>X>X>X>X>X>X",
">X>X>X>X>X>X>X>X>X>X>X>X4X4X4X4X4X4X4X>X>X>X>X>X>X>X>X>X>X>X>X>X>X>X>X>X;X5Xt 9 2 , l H.5XH.B.w s 4 i eX;X>X>X>X>X>X>X>X>X>X>X>X",
">X>X>X>X>X>X>X>X>X>X>X4X4X4X4X4X4X>X>X>X>X1X>X>X>X>X>X>X>X>X>X>X>X>X>X>X>XP.m < 9 9 , - ; - - 2 q , n 2X;X>X4X4X4X>X>X>X>X>X>X>X",
">X>X>X>X>X>X>X>X>X>X>X4X4X4X4X4X>X>X>X>X>X1X>X:X>X>X>X>X>X>X>X>X>X>X>X>X>X;X9XB.8 9 9 2 3 3 4 3 < x 5XP.>X>X4X4X4X>X>X>X>X>X>X>X",
">X>X>X>X>X>X>X>X>X>X>X4X4X4X>X>X>X>X>X>X>X>X:X:X1X-X:X:X:X>X>X>X>X>X>X>X>X>X;X2XA.V.n j a a b n Z.2X;X>X>X>X4X4X>X>X>X>X>X>X>X>X",
">X>X>X>X>X>X>X>X>X>X4X4X4X4X4X>X>X>X>X>X>X:X,Xc.3.^.<X,X:X:X>X>X:X>X>X>X>X>X>X;XP.P.2X5XeXrXeXI.F.2X>X>X>X>X4X4X>X>X>X>X>X>X>X>X",
">X>X>X>X>X>X>X>X>X>X4X4X4X4X4X>X>X>X>X>X:X:X* o S # $ ~.,X-X:X>X>X:X>X>X>X>X>X>X>X>X>XP.P.;X;X;X;X>X>X>X>X>X>X4X>X>X>X>X>X>X>X>X",
">X>X>X>X>X>X>X>X>X>X4X4X4X4X4X>X>X4X>X>X:X-X/.f.S W H # ~.<X:X:X>X:X>X>X>X>X>X>X>X>X>X>X>X>X>X>X>X>X4X4X>X>X>X4X>X>X>X>X>X>X>X>X",
">X>X>X>X>X>X>X>X>X>X4X4X4X4X>X>X>X>X>X>X:X:X<X.X,.E / ^ U $X-X:X:X:X>X>X>X>X>X>X>X>X>X>X>X>X>X>X>X>X>X4X>X>X>X>X4X>X>X>X>X>X>X>X",
">X>X>X>X>X>X>X>X>X>X4X4X4X4X>X>X>X>X>X>X:X:X,X|.:.E ' / S OX.X-X:X:X:X>X>X>X1X1X>X>X>X>X>X>X>X>X>X>X>X>X>X>X>X>X4X>X>X>X>X>X>X>X",
">X>X>X>X>X>X>X>X>X>X4X4X4X4X>X>X>X>X>X>X:X:X-X|.:.( X.' } oX.X|.|.-X:X:X>X>X1X1X>X>X>X>X>X>X>X>X>X>X>X>X>X>X>X>X4X>X>X>X>X>X>X>X",
">X>X>X>X>X>X>X>X>X>X4X4X>X>X>X>X>X>X>X:X:X:X-X|.-./ X.X.( ..:.d.).0X-X:X>X>X>X>X>X>X>X>X>X>X>X>X>X>X>X>X>X>X>X>X>X>X>X>X>X>X>X>X",
">X>X>X>X>X>X>X>X>X>X>X>X>X>X>X>X>X:X:X:X:X-X|.}..._ +.w.+.' ^ B o b.0X:X:X>X>X>X>X>X>X>X>X>X>X>X>X>X>X>X>X>X>X>X>X>X>X>X>X>X>X>X",
">X>X>X>X>X>X>X>X>X>X>X>X>X>X>X>X:X:X:X-X|.|.|.+XY o.w.w.X.X.' Q R # +X:X:X>X>X>X>X>X>X>X>X>X>X>X>X>X>X>X>X>X>X>X>X>X>X>X>X>X>X>X",
">X>X>X>X>X>X>X>X>X>X>X>X>X>X>X>X:X:X<X<X/./.c.I ` w.t.e.q._ ) *.4.v..X:X:X>X>X>X>X>X>X>X>X>X>X>X>X>X>X>X>X>X>X>X>X>X>X>X>X>X>X>X",
">X>X>X>X>X>X>X>X>X>X>X>X>X>X1X:X-X2.>.$ @ + H ' X.t.w.q.Z s.%X#X+X|.<X:X:X:X>X>X>X>X>X>X>X>X>X>X>X>X>X>X>X>X>X>X>X>X>X>X>X>X>X>X",
">X>X>X>X>X>X>X>X>X>X>X>X>X>X>X:X:Xc.+ D ^ / o.X.w.t.X./ l.=X+X|..X.X<X:X:X:X>X1X>X>X>X>X>X>X>X>X>X>X>X>X>X>X>X4X>X>X>X>X>X>X>X>X",
">X>X>X>X>X>X>X>X>X>X>X>X>X>X>X:X-X0X1.N E ( #.y.t.w.w.{ s...:.$X|..X,X-X:X:X:X>X:X:X:X>X>X>X>X>X>X>X>X>X>X>X>X4X>X>X>X>X>X>X>X>X",
">X>X>X>X>X>X>X>X>X>X>X>X>X>X>X:X:X-X@XW.5.| W ` X.X.X.! N B B  .OX|..X|.|.-X-X:X:X:X>X>X>X>X>X>X>X>X>X>X>X4X4X4X>X>X>X>X>X>X>X>X",
">X>X>X>X>X>X>X>X>X>X>X>X>X>X>X:X:X:X-X|.0XtX*Xs./ X._ 7.&X} H B T.%X$X@XqXwX.X|.-X:X:X:X>X>X>X>X>X>X>X>X>X4X4X4X>X>X>X>X>X>X>X>X",
">X>X>X>X>X>X>X>X>X>X>X>X>X>X>X:X:X:X,X-X|./.+X..' X.F j.0.P / _ G V S V S I -.m.0X|.:X:X>X>X>X>X>X>X>X>X>X>X>X>X>X>X>X>X>X>X>X>X",
">X>X>X>X>X>X>X>X>X>X>X>X>X:X:X:X:X:X-X|.|.^.6.F X.X.] B F / [ ~ %.Y =.=.Y D G O 1.@X<X:X:X>X>X>X>X>X>X>X>X>X>X>X>X>X>X>X>X>X>X>X",
">X>X>X>X>X>X>X>X>X>X:X>X>X:X:X-X|.|.|.L.+X .H X.O._ T ) F Q ! k.#X X X+XOXj.D ^ G <.0X-X:X>X>X>X>X>X>X>X>X>X>X>X>X>X>X>X>X>X>X>X",
">X>X>X>X>X>X>X>X>X>X:X>X:X:X-XN.m.M.M.n.U H ' X._ | k.!.N _ ~ ]. X|.|.|.|.%XK [ O.K `..X:X>X>X>X>X>X>X>X>X>X>X>X>X>X>X>X>X>X>X>X",
">X>X>X>X>X>X>X>X>X>X>X>X:X:XN.X I ;.# A ( ( Q [ R Q.=X6.( ' ( ,.qX|.|.,X|.OXD X.o.%.$X.X:X>X>X>X>X>X>X>X>X>X>X>X>X>X>X>X>X>X>X>X",
">X>X>X>X>X>X>X>X>X>X>X>X:X:XM.A L 9.P G ) a.&.R ( Y L ^ X.X.' B T. X|.|.|.#XD o.` s..X-X:X>X>X>X>X>X>X>X>X>X>X>X>X>X>X>X>X>X>X>X",
">X>X>X>X>X>X>X>X>X>X>X>X:X-X).S / E K Q.=XoXf.C o.+.X.+.+.w.[ C T. X.X|.,X_.D [ T R.|.-X:X>X>X>X>X>X>X>X>X>X>X>X>X>X>X>X>X>X>X>X",
">X>X>X>X>X>X>X>X>X>X>X:X:X-X,XI ] Q h.OX). X<.Q X.w.t.u.t.w.! l.OX|.,X-X<Xd.G ' C `.|.:X:X>X>X>X>X>X>X>X>X>X>X>X>X>X>X>X>X>X>X>X",
">X>X>X>X>X>X>X>X>X>X>X:X:X-X.X,./ T !.}.}.).V / [ r.y.u.u.e.} ].}.|.-X-X<X-.! [ ) %X|.:X:X>X>X>X>X>X>X>X>X>X>X>X>X>X>X>X>X>X>X>X",
">X>X>X>X>X>X>X>X>X>X>X:X:X-X|.:.W Z E.}.|.).S C a.*.o.u.t.w./ Y _.|.|.|.<X$ / [ } %X|.:X:X>X>X>X>X>X>X>X>X>X>X>X>X>X>X>X>X>X>X>X",
">X>X>X>X>X>X>X>X>X>X>X>X:X-X-X>.W R E.}.|. XT.'._.%.e.u.t.w.[ R 4..X|.|.(.o [ [ 5.@X-X:X:X>X>X>X>X>X>X>X>X>X>X>X>X>X>X>X>X>X>X>X",
">X>X>X>X>X>X>X>X>X>X>X>X:X-X|.-.( E j.}.|.|.b.% K O.y.u.w._ Z C U `.|.(.m.N [ / h.XX<X:X:X>X>X>X>X>X>X>X>X>X>X>X>X>X>X>X>X>X>X>X",
">X>X>X>X>X>X>X>X>X>X>X>X:X:X|.-.) W h.}.|.|.& D ' +.y.y._ a.!.!._. X|.|.3.H O.] !.|.:X:X:X>X>X>X>X>X>X>X>X1X1X>X>X>X>X>X>X>X>X>X",
">X>X>X>X>X>X>X>X>X>X>X>X:X:X,Xd.C ) 9. X|.,X:.W { @.i.r.E 9.0.%X.X}.}.<X<.@.$.~ _.|.:X:X1X>X>X>X>X>X>X>X>X1X1X1X>X>X>X>X>X>X>X>X",
">X>X>X>X>X>X>X>X>X>X>X>X>X:X-X+XU ~ 6. X|.|.n.4.8.8.G o.Z !.$ % 1.b.^.T.Y #.@.&.OX<X:X>X>X>X>X>X>X>X>X>X1X1X>X>X>X>X>X>X>X>X>X>X",
">X>X>X>X>X>X>X>X>X>X>X>X>X:X:X|.$XS 6..X|.<X<X<X@XW.C ] C _.W.Y P K A ) i.i.( g.XX:X:X>X1X>X>X>X>X>X>X>X1X1X>X>X>X>X>X>X>X>X>X>X",
">X>X>X>X>X>X>X>X>X>X>X>X>X>X:X:X<XM.^.|.-X:X,X-X|.~.N ^ S #X|._. .J #.p.i.#.} oXXX:X:X>X1X>X>X>X>X>X>X>X>X>X>X>X>X>X>X>X>X>X>X>X",
">X>X>X>X>X>X>X>X>X>X>X>X>X>X>X:X:X:X:X:X:X:X:X:X|..X@ D 8.@X|.|.$X..! #.r.~ Q.XX<X:X>X>X>X>X>X>X>X>X>X>X>X>X>X1X>X>X>X>X>X>X>X>X",
">X>X>X>X>X>X>X>X>X>X>X>X>X>X>X>X>X:X:X:X:X:X:X:X:X:Xc.I _..X,X,XXX%X..| K h.@X,X:X>X>X>X>X>X>X>X>X>X>X>X>X>X>X1X>X>X>X>X>X>X>X>X",
">X>X>X>X>X>X>X>X>X>X>X>X>X>X>X>X>X>X>X>X>X:X:X:X:X,X<Xn..X-X<X-X-X<Xb...E.@X-X:X:X>X>X>X>X>X>X>X>X>X>X>X>X>X>X>X>X>X>X>X>X>X>X>X",
">X>X>X>X>X>X>X>X>X>X>X>X>X>X>X>X1X>X>X>X>X>X>X>X>X:X:X:X:X:X:X:X:X,X<X+X,X<X:X>X>X>X>X>X>X>X1X>X>X>X>X>X>X>X>X>X>X>X>X>X>X>X>X>X",
">X>X>X>X>X>X>X>X>X>X>X>X>X>X>X>X>X>X>X>X>X>X>X>X>X>X>X:X:X>X>X:X>X:X:X:X:X:X>X>X>X>X>X>X>X>X>X>X>X>X>X>X>X>X>X>X>X>X>X>X>X>X>X>X",
">X>X>X>X>X>X>X>X>X>X>X>X>X>X>X>X>X>X>X>X>X>X>X>X>X>X>X>X>X>X>X>X>X>X>X>X>X>X>X>X>X>X>X>X>X>X>X>X>X>X>X>X>X>X>X>X>X>X>X>X>X>X>X>X",
">X>X>X>X>X>X>X>X>X>X>X>X>X>X>X>X>X>X>X>X>X>X>X>X>X>X>X>X>X>X>X>X>X>X>X>X>X>X>X>X>X>X>X>X>X>X>X>X>X>X>X>X>X>X>X>X>X>X>X>X>X>X>X>X",
">X>X>X>X>X>X>X>X>X>X>X>X>X>X>X>X>X>X>X>X>X>X>X>X>X>X>X>X>X>X>X>X>X>X>X>X>X>X>X>X>X>X>X>X>X>X>X>X>X>X>X>X>X>X>X>X>X>X>X>X>X>X>X>X",
">X>X>X>X>X>X>X>X>X>X>X>X>X>X>X>X>X>X>X>X>X>X>X>X>X>X>X>X>X>X>X>X>X>X>X>X>X>X>X>X>X>X>X>X>X>X>X>X>X>X>X>X>X>X>X>X>X>X>X>X>X>X>X>X"
};
