/* XPM */
static char *_8212013a0094d38f86a16f2983341eemsAPwzqNzwQ1ltVQ[] = {
/* columns rows colors chars-per-pixel */
"64 64 223 2 ",
"   c #7C2527",
".  c #0E1D5B",
"X  c #07196A",
"o  c #141E67",
"O  c #060B72",
"+  c #0B1C7A",
"@  c #121D7F",
"#  c #14266E",
"$  c #09247A",
"%  c #17247A",
"&  c #2B316A",
"*  c #3D4475",
"=  c #41455C",
"-  c #4D5072",
";  c #4E567A",
":  c #5A687B",
">  c #686C7B",
",  c #8B0A0B",
"<  c #9C060B",
"1  c #99080B",
"2  c #9A0D16",
"3  c #961718",
"4  c #A40609",
"5  c #A5030C",
"6  c #AD030D",
"7  c #B2040E",
"8  c #B1090F",
"9  c #AD0413",
"0  c #A30915",
"q  c #AC0B13",
"w  c #B30413",
"e  c #B10C15",
"r  c #B60D1A",
"t  c #A91319",
"y  c #B4121A",
"u  c #81201C",
"i  c #8A1E26",
"p  c #B10722",
"a  c #A51926",
"s  c #9B2829",
"d  c #90302D",
"f  c #822E30",
"g  c #8B343C",
"h  c #9E3933",
"j  c #AF2D2F",
"k  c #A62B32",
"l  c #A73B45",
"z  c #994A47",
"x  c #955753",
"c  c #995757",
"v  c #B54E54",
"b  c #A85151",
"n  c #B5595A",
"m  c #B4685B",
"M  c #B75A65",
"N  c #AE746E",
"B  c #C5757C",
"V  c #BF827A",
"C  c #C88D7F",
"Z  c #061A8B",
"A  c #111E86",
"S  c #081A95",
"D  c #03169B",
"F  c #031E9C",
"G  c #07228A",
"H  c #0A218B",
"J  c #18268A",
"K  c #1F3085",
"L  c #042495",
"P  c #05249C",
"I  c #0B2799",
"U  c #04289C",
"Y  c #162A99",
"T  c #09329B",
"R  c #163498",
"E  c #2C3583",
"W  c #293786",
"Q  c #283C98",
"!  c #0615A6",
"~  c #021DA2",
"^  c #0323A4",
"/  c #032BA5",
"(  c #0B29A7",
")  c #0324AA",
"_  c #022CAD",
"`  c #152AA7",
"'  c #0431A5",
"]  c #0C34A6",
"[  c #0232AE",
"{  c #0839AD",
"}  c #1936A6",
"|  c #133BAC",
" . c #062BB2",
".. c #022DB1",
"X. c #0233B3",
"o. c #0A36B2",
"O. c #053DB3",
"+. c #0A3CB1",
"@. c #0638BA",
"#. c #123CB4",
"$. c #2C3EA9",
"%. c #223DB3",
"&. c #3A448B",
"*. c #3B4C9E",
"=. c #0941AE",
"-. c #0442B5",
";. c #0944B9",
":. c #1745B5",
">. c #3043A5",
",. c #3950AE",
"<. c #2648B3",
"1. c #444B89",
"2. c #46508F",
"3. c #555A8B",
"4. c #4A5699",
"5. c #515995",
"6. c #5B648A",
"7. c #5A659E",
"8. c #656D88",
"9. c #777E8F",
"0. c #636C9E",
"q. c #697394",
"w. c #637198",
"e. c #4859A7",
"r. c #4B57B5",
"t. c #5A67A5",
"y. c #4A66B9",
"u. c #5767B8",
"i. c #5C70BC",
"p. c #606FA5",
"a. c #6973A5",
"s. c #697ABA",
"d. c #4A69C1",
"f. c #576DC2",
"g. c #5C79CA",
"h. c #647BCC",
"j. c #7B84A6",
"k. c #7885B4",
"l. c #768ACB",
"z. c #748CCA",
"x. c #91949B",
"c. c #BD8C85",
"v. c #B89691",
"b. c #BBA098",
"n. c #868AA7",
"m. c #8B94B0",
"M. c #949DB6",
"N. c #9DA5BA",
"B. c #A5ACBD",
"V. c #ADB1BC",
"C. c #B5BABD",
"Z. c #C8868B",
"A. c #D78986",
"S. c #C5948C",
"D. c #D79388",
"F. c #CF9092",
"G. c #CDA69D",
"H. c #CE9DA5",
"J. c #D8A6A9",
"K. c #CEB3A9",
"L. c #D3B7AE",
"P. c #DAADB1",
"I. c #CFBAB0",
"U. c #C4BDBB",
"Y. c #CABDBB",
"T. c #D7BAB9",
"R. c #E5ACB3",
"E. c #E2B7BA",
"W. c #C7C3BE",
"Q. c #CCC4BE",
"!. c #CDC9BF",
"~. c #D1C2BB",
"^. c #D9C3BA",
"/. c #859BCD",
"(. c #8B9DD0",
"). c #98A3C1",
"_. c #97A6D3",
"`. c #91ABD5",
"'. c #A5ADC2",
"]. c #AEB4C2",
"[. c #B5BEC3",
"{. c #B7BECA",
"}. c #A7B8D7",
"|. c #ABBBD5",
" X c #ADBDDA",
".X c #B5BDD7",
"XX c #8BABE5",
"oX c #9AB2E5",
"OX c #A4B9E0",
"+X c #CCBFC1",
"@X c #AEC1CA",
"#X c #B6C1C4",
"$X c #BCC3C4",
"%X c #B4C2CC",
"&X c #BCC5CB",
"*X c #BCC8CD",
"=X c #B8C7D5",
"-X c #BDCAD3",
";X c #B4C4DB",
":X c #BBCBDB",
">X c #ADC2E9",
",X c #B5C6E3",
"<X c #C3C6C4",
"1X c #CBC6C1",
"2X c #C6C9C5",
"3X c #CDCDC5",
"4X c #C2C6C9",
"5X c #C3C9CB",
"6X c #CACDCC",
"7X c #D3C6C2",
"8X c #D0CDC6",
"9X c #DBC7C8",
"0X c #D2CDC9",
"qX c #C4CCD3",
"wX c #C8CCD3",
"eX c #C7D2D8",
"rX c #DDD5D2",
"tX c #DED8D3",
"yX c #E5C8CB",
"uX c #E1D1D1",
"iX c #C1CEE4",
"pX c #C6D6E3",
"aX c #CADEF2",
/* pixels */
"3X3X3X3X3X3X3X3X3X3X3X3X3X3X3X3X3X3X3X3X3X3X3X3X3X3X3X3X3X3X3X3X3X3X3X3X3X3X3X3X3X3X3X3X3X3X3X3X3X3X3X3X3X3X3X3X3X3X3X3X3X3X3X3X",
"3X3X3X3X3X3X3X3X3X3X3X3X3X3X3X3X3X3X3X3X3X3X3X3X3X3X3X3X3X3X3X3X3X3X3X3X3X3X3X3X3X3X3X3X3X3X3X3X3X3X3X3X3X3X3X3X3X3X3X3X3X3X3X3X",
"3X3X3X3X3X3X3X3X3X3X3X3X3X3X3X3X3X3X3X3X3X3X3X3X3X3X3X3X3X3X3X3X3X3X3X3X3X3X3X3X3X3X3X3X3X3X3X3X3X3X3X3X3X3X3X3X3X3X3X3X3X3X3X3X",
"3X3X3X3X3X3X3X3X3X3X3X3X3X3X3X3X3X3X3X3X3X3X3X3X3X3X3X3X3X3X3X3X3X3X3X3X3X3X3X3X3X3X3X3X3X3X3X3X3X3X3X3X3X3X3X3X3X3X3X3X3X3X3X3X",
"3X3X3X3X3X3X3X3X3X3X3X3X3X3X3X3X3X3X3X3X3X3X3X3X3X3X3X3X3X3X3X3X3X3X3X3X3X3X3X3X3X3X3X3X3X3X3X3X3X3X3X3X3X3X3X3X3X3X3X3X3X3X3X3X",
"3X3X3X3X3X3X3X3X3X3X3X3X3X3X3X3X3X3X3X3X3X3X3X3X3X3X3X3X3X3X3X3X3X3X3X3X3X3X3X3X3X3X8X0X8X0X0X0X0X0X0X0X3X3X3X3X3X3X3X3X3X3X3X3X",
"3X3X3X3X3X3X3X3X3X3X3X3X3X3X3X3X3X3X3X3X3X3X3X3X3X3X3X3X3X3X3X3X1X3X3X3X3X3X3X3X3X3X8X3X3X8X8X7X8X8X3X8X8X3X3X3X3X3X3X3X3X3X3X3X",
"3X3X3X3X3X3X3X3X3X3X3X3X3X3X3X3X8X8X3X3X3X3X3X3X8X8X8X8X8X3X1X1X1X1X1X1X3X3X1X1X1X1X3X1X1X1X1X1X1X1X3X3X8X8X8X8X3X3X3X3X3X3X3X3X",
"3X3X3X3X3X3X3X3X3X3X3X3X3X3X3X3X3X8X8X8X3X3X8X8X8X8X8X3X3X1X0XuXrXuX0X1X1X1X1XrXrXtX0X1X2X1XQ.0XtXtXrX1X7X8X8X8X3X3X3X3X3X3X3X3X",
"3X3X3X3X3X3X3X3X3X3X3X3X3X3X3X3X3X8X8X8X8X8X8X8X8X8X8X3X3X1Xv.      N 1XW.Q.v.f f f c 7X1X1XQ.x g g x 9X7X3X3X3X3X3X3X3X3X3X3X3X",
"3X3X3X3X3X3X3X3X3X3X3X3X3X3X3X3X3X8X8X8X8X8X8X8X8X8X3X3X3X1XL.3 t t l 0XW.W.c t 9 q , T.1XW.L.i t a b 9X1X3X3X3X3X3X3X3X3X3X3X3X",
"3X3X3X3X3X3X3X3X3X3X3X3X3X3X3X3X8X8X3X3X3X3X3X8X8X8X3X3X1X1X7Xd t p a yXU.Q.z 9 6 9 1 H.Y.W.S.2 9 0 B 1X3X3X3X3X3X3X3X3X3X3X3X3X",
"3X3X3X3X3X3X3X3X3X3X3X3X3X3X3X3X3X3X3X3X3X3X3X3X3X8X3X3X1X1XQ.b q 6 0 J.Y.^.s 9 5 5 5 B U.1Xc q w 2 P.1X3X3X3X3X3X3X3X3X3X3X3X3X",
"3X3X3X3X3X3X3X3X3X3X3X3X3X3X3X3X3X3X3X3X3X3X3X3X3X3X1X3X3X1XQ.c.1 6 9 M +XT.3 w j e 9 v 1X~.u 6 7 k yX3X3X3X3X3X3X3X3X3X3X3X3X3X",
"3X3X3X3X3X3X3X3X3X3X3X3X3X3X3X3X3X3X3X3X3X3X3X3X3X3X3X3X1X1XW.^.3 6 9 i 9Xc.< 9 j 4 9 k yXb., 6 9 B 7X3X3X3X3X3X3X3X3X3X3X3X3X3X",
"3X3X3X3X3X3X3X3X3X3X3X3X3X3X3X3X3X3X3X3X3X3X3X3X3X3X3X3X1X1X1X0Xb q w , P.z 5 q A.s 9 2 E.N 5 7 y E.Q.1X3X3X3X3X3X3X3X3X3X3X3X3X",
"3X3X3X3X3X3X3X3X3X3X3X3X3X3X3X3X3X3X3X3X3X3X3X3X3X3X3X3X3X1X1XQ.S.t w < Z.u 6 q R.h w 0 Z.z 9 r k T.Q.1X3X3X3X3X3X3X3X3X3X3X3X3X",
"3X3X3X3X3X3X3X3X3X3X3X3X3X3X3X3X3X3X3X3X3X3X3X3X3X3X3X3X3X1X3XW.I.3 e e v , 6 t R.n 6 6 n s w r n ~.1X7X3X3X3X3X3X3X3X3X3X3X3X3X",
"3X3X3X3X3X3X3X3X3X3X3X3X3X3X3X3X3X3X3X3X3X3X3X3X3X3X3X3X3X3X1X1XQ.h e 6 < 4 7 k T.V 5 6 < < e 0 F.Q.1X3X3X3X3X3X3X3X3X3X3X3X3X3X",
"3X3X3X3X3X3X3X3X3X3X3X3X3X3X3X3X3X3X3X3X3X3X3X3X3X3X3X3X3X1X3X1XQ.N 1 6 q e 6 n Y.G.1 7 6 6 w a yX1X1X3X3X3X3X3X3X3X3X3X3X3X3X3X",
"3X3X3X3X3X3X3X3X3X3X3X3X3X3X3X3X3X3X3X3X3X3X3X3X8X8X3X3X1X1X1X1X1X^.3 q y r 5 Z.Y.K.3 6 r r 8 M 9X1X3X8X3X3X3X3X3X3X3X3X3X3X3X3X",
"3X3X3X3X3X3X3X3X3X3X3X3X3X3X3X3X3X3X3X3X3X3X3X3X3X8X3X3X1X1X3X1XW.rXh 8 7 w 0 E.Y.~.h 6 w w q F.Q.1X3X8X3X3X3X3X3X3X3X3X3X3X3X3X",
"3X3X3X3X3X3X3X3X3X3X3X3X3X3X3X3X3X3X3X3X3X3X3X3X3X3X3X3X3X1X3X1XQ.1Xm 7 7 w k yXY.Q.m 4 7 7 t P.W.3X3X3X3X3X3X3X3X3X3X3X3X3X3X3X",
"3X3X3X3X3X3X3X3X3X3X3X3X3X3X3X3X3X3X3X3X3X3X3X3X3X3X3X3X1X1X1X1X1XW.c.y y y n 9XW.Q.S.0 e e s T.Q.1X3X3X3X3X3X3X3X3X3X3X3X3X3X3X",
"3X3X3X3X3X3X3X3X3X3X3X3X3X3X3X3X3X3X3X3X3X3X3X3X3X3X3X3X1X1X3X1X1XQ.I.C D.D.J.1XW.1X~.D.A.A.F.7X1X3X3X3X3X3X3X3X3X3X3X3X3X3X3X3X",
"3X3X3X3X3X3X3X3X3X3X3X3X3X3X3X3X3X3X3X3X3X3X3X3X3X3X3X1X1X1X1X1X1X!.!.Q.Q.Q.Q.1X1X1XQ.Q.Q.Q.~.1X1X3X3X3X3X3X3X3X3X3X3X3X3X3X3X3X",
"3X3X3X3X3X3X3X3X3X3X3X3X3X3X3X3X3X3X3X3X3X3X3X3X3X3X1X1X1X1X3X3X1X1X1X1X1X1X1X2X3X3X3X3X3X1X1X1X3X8X3X3X3X3X3X3X3X3X3X3X3X3X3X3X",
"3X3X3X3X3X3X3X3X3X3X3X3X3X3X3X3X3X3X3X3X3X3X3X3X3X3X1X1X2X2X1X1X1X1X1X1X2X1X1X3X3X3X3X3X3X3X3X3X3X3X3X3X3X3X3X3X3X3X3X3X3X3X3X3X",
"3X3X3X3X3X3X3X3X3X3X3X3X3X3X3X3X3X3X3X3X3X3X3X3X2X2X2X1X2X2X2X<X<X1X2X2X2X3X3X3X3X3X3X3X3X3X3X3X3X3X3X3X3X3X3X3X3X3X3X3X3X3X3X3X",
"3X3X3X3X3X3X3X3X3X3X3X3X3X3X3X3X3X3X3X3X3X3X3X2X1X1X2X2X<X<X6X6X<X<X2X2X2X2X3X3X3X3X3X3X3X3X3X3X3X3X3X3X3X3X3X3X3X3X3X3X3X3X3X3X",
"3X3X3X3X3X3X3X3X3X3X3X3X3X3X3X3X3X3X3X1X2X2X2X<X<X<X<X<X$XV.; 6.].4X<X2X2X2X3X3X3X3X3X3X3X8X3X3X3X3X3X3X3X3X3X3X3X3X3X3X3X3X3X3X",
"3X3X3X3X3X3X3X3X3X3X3X3X3X3X3X3X3X2X2X<X<X<X<X$X5X6XC.9.- # G Z @ 3.wX<X2X2X2X3X3X3X3X3X3X3X3X3X3X3X3X3X3X3X3X3X3X3X3X3X3X3X3X3X",
"3X3X3X3X3X3X3X3X3X3X3X3X3X3X3X3X3X2X2XC.[.C.B.M.q.& X X G / / / ) Z 7.wX<X2X2X3X3X3X3X3X3X3X3X3X3X3X3X3X3X3X3X3X3X3X3X3X3X3X3X3X",
"3X3X3X3X3X3X3X3X3X3X3X3X3X3X3X3X2X2X2X> . o # G U ^ / _ _ _ X.X._ / A ,X<X2X2X1X3X3X3X3X3X3X3X3X3X3X3X3X3X3X3X3X3X3X3X3X3X3X3X3X",
"3X3X3X3X3X3X3X3X3X3X3X3X3X3X3X3X2X2X<X6X3.Z ' ' [ [ _ X.X._ _ _ ) ^ J |.<X<X2X1X3X3X3X3X3X3X3X3X3X3X3X3X3X3X3X3X3X3X3X3X3X3X3X3X",
"3X3X3X3X3X3X3X3X3X3X3X3X3X3X3X1X2X<X<X$X4XE U { X.X...X.X. .! D r.oX}.qX<X2X2X1X1X3X3X3X3X3X3X3X3X3X3X3X3X3X3X3X3X3X3X3X3X3X3X3X",
"3X3X3X3X3X3X3X3X3X3X3X3X3X3X3X1X2X<X<X$XwXk.S _ @.......[ ( (.OX:X*X&X&X<X2X2X1X1X1X3X3X3X3X3X3X3X3X3X3X3X3X3X3X3X3X3X3X3X3X3X3X",
"3X3X3X3X3X3X3X3X3X3X3X3X3X3X1X1X2X<X5X4X; O ,.` ! <.R } ~ ~ @ p.%X&X$X<X<X<X2X1X1X1X3X3X3X3X3X3X3X3X3X3X3X3X3X3X3X3X3X3X3X3X3X3X",
"3X3X3X3X3X3X3X3X3X3X3X3X3X2X2X2X2X4X8.&.J g.y.l.}.|. X}.s.S D Z K M.5X&X<X<X2X2X2X2X1X3X3X3X3X3X3X3X3X3X3X3X3X3X3X3X3X3X3X3X3X3X",
"3X3X3X3X3X3X3X3X3X3X3X3X1X2X2X2X<X$Xn. X}.=X;X=X#X#X&X#XeX4.D ~ F + ).$X$X<X<X<X2X2X2X3X3X3X3X3X3X3X3X3X3X3X3X3X3X3X3X3X3X3X3X3X",
"3X3X3X3X3X3X3X3X3X3X3X3X2X2X2X2X2X<X<X&X&X= & w.-X[.#X#X[.a.D ) ) ^ *.eX-XeXwX6X<X<X2X2X3X3X3X3X3X3X3X3X3X3X3X3X3X3X3X3X3X3X3X3X",
"3X3X3X3X3X3X3X3X3X3X3X2X2X<X$X2X2X<X<X<X4X9.G L p.=X$X$X&X7.~ .._ ) F Q % E &.0.m.*X<X2X3X3X3X3X3X3X3X3X3X3X3X3X3X3X3X3X3X3X3X3X",
"3X3X3X3X3X3X3X3X3X3X3X2X<Xx.: 4X<X<X<X&X$X-XK / L t..XN.q.Y ..X.X._ _ ) ^ P L L + 2.qX&X2X3X3X3X3X3X3X3X3X3X3X3X3X3X3X3X3X3X3X3X",
"3X3X3X3X3X3X3X3X3X3X3X<X3X* p.*X&X<X$X#X*XN.Q _ X.U G Z L _ _ X._ ) %.u.i.l.J P / L &.%X&X2X3X3X3X3X3X3X3X3X3X3X3X3X3X3X3X3X3X3X",
"3X3X3X3X3X3X3X3X3X3X3X<XC.% W :X[.#X5X{.- X / X...X.[ / ^ [ X._ ) d.aX:X[.&X1.) _ / I 4.wX2X3X3X3X3X3X3X3X3X3X3X3X3X3X3X3X3X3X3X",
"3X3X3X3X3X3X3X3X3X3X3X<X[.J } t.-X$X; $ U X.X.X.X...` f.r.D _ ..^ oX%X$X[.wXW ...._ ^ e.qX2X3X3X3X3X3X3X3X3X3X3X3X3X3X3X3X3X3X3X",
"3X3X3X3X3X3X3X3X3X3X2X<XeXW | L e.E H / [ _  .X.X.) XX:X).Z ....` ,X#X#X$X].$ ...._ D (.&X3X3X3X3X3X3X3X3X3X3X3X3X3X3X3X3X3X3X3X",
"3X3X3X3X3X3X3X3X3X3X2X<X<X5.( +./ / } g.>.h.>._ X.` ,X&X6.F _ ..^ e.k.'.qX8.L X...) >.:X4X3X3X3X3X3X3X3X3X3X3X3X3X3X3X3X3X3X3X3X",
"3X3X3X3X3X3X3X3X3X3X3X<X$XB.% +.-./ h.:X:X-X5.^ X.$.:X&X* ~ _ .._ ^ Z %  Xo _ [ X.` >X*X4X3X3X3X3X3X3X3X3X3X3X3X3X3X3X3X3X3X3X3X",
"3X3X3X3X3X3X3X3X3X3X3X2X<XwX1.' ;.F /.#X#X$X1.^ _ ,.%X#X).S ! ~ ) ) ~ A k.Z ..X.X.$.:X&X2X3X3X3X3X3X3X3X3X3X3X3X3X3X3X3X3X3X3X3X",
"3X3X3X3X3X3X3X3X3X3X3X2X<X5Xj.F O.F /.#X#X&X&./ _ u.@X[.-X_.z.g.d.y.z.`.&.) X.X.) u.*X<X2X3X3X3X3X3X3X3X3X3X3X3X3X3X3X3X3X3X3X3X",
"3X3X3X3X3X3X3X3X3X3X3X2X2X$X{.A o.F /.[.[.&XE _ _ i.pXpXiX|.a.4.w.q.|.j.H X.X.X.S _.&X2X3X3X3X3X3X3X3X3X3X3X3X3X3X3X3X3X3X3X3X3X",
"3X3X3X3X3X3X3X3X3X3X3X3X2X<XqXE #.( /.-XqX%X*.#.+.} R R R Y T T $ . t.K o.;.O.o.e.iX<X5X2X3X3X3X3X3X3X3X3X3X3X3X3X3X3X3X3X3X3X3X",
"3X3X3X3X3X3X3X3X3X3X3X3X2X<X4X3.Y | Q t.W $ | +.O.-.-.O.O.O.+.O.O.{ ] ;.-.-.O.Y  X$X2X2X3X3X3X3X3X3X3X3X3X3X3X3X3X3X3X3X3X3X3X3X",
"3X3X3X3X3X3X3X3X3X3X3X3X2X5X<X'.@ | :.=.=.-.;.;.@.X.#.( I R } <.| { ;.;.;.;.] s.qX4X2X2X3X3X3X3X3X3X3X3X3X3X3X3X3X3X3X3X3X3X3X3X",
"3X3X3X3X3X3X3X3X3X3X3X3X2X2X2XwXa.I o.;.{ [ ( ` >.y.e._.,X;XpXpX|.J | ;.O._ R iX&X5X3X3X3X3X3X3X3X3X3X3X3X3X3X3X3X3X3X3X3X3X3X3X",
"3X3X3X3X3X3X3X3X3X3X3X3X3X2X2X<X5X5.I ~ } f._.;X-X-X5X5X<X4X&X$X5X0.I +.( Q _.4X<X2X3X3X3X3X3X3X3X3X3X3X3X3X3X3X3X3X3X3X3X3X3X3X",
"3X3X3X3X3X3X3X3X3X3X3X3X3X3X2X2X<XqXt.l.;XeX5X&X4X4X4X5X5X5X2X<X4Xn.H ] Q ;X4X2X2X3X3X3X3X3X3X3X3X3X3X3X3X3X3X3X3X3X3X3X3X3X3X3X",
"3X3X3X3X3X3X3X3X3X3X3X3X3X3X3X2X2X2X4X5X4X5X2X2X2X2X2X2X2X2X2X2X2XqXt.s.:X&X2X2X2X3X3X3X3X3X3X3X3X3X3X3X3X3X3X3X3X3X3X3X3X3X3X3X",
"3X3X3X3X3X3X3X3X3X3X3X3X3X3X3X3X3X2X2X2X2X2X2X2X2X2X3X2X2X2X2X2X2X2XwXwX5X2X2X3X3X3X3X3X3X3X3X3X3X3X3X3X3X3X3X3X3X3X3X3X3X3X3X3X",
"3X3X3X3X3X3X3X3X3X3X3X3X3X3X3X3X3X3X3X3X3X3X2X3X3X3X3X3X3X3X3X3X2X3X3X3X3X3X3X3X3X3X3X3X3X3X3X3X3X3X3X3X3X3X3X3X3X3X3X3X3X3X3X3X",
"3X3X3X3X3X3X3X3X3X3X3X3X3X3X3X3X3X3X3X3X3X3X3X3X3X3X3X3X3X3X3X3X3X3X3X3X3X3X3X3X3X3X3X3X3X3X3X3X3X3X3X3X3X3X3X3X3X3X3X3X3X3X3X3X",
"3X3X3X3X3X3X3X3X3X3X3X3X3X3X3X3X3X3X3X3X3X3X3X3X3X3X3X3X3X3X3X3X3X3X3X3X3X3X3X3X3X3X3X3X3X3X3X3X3X3X3X3X3X3X3X3X3X3X3X3X3X3X3X3X",
"3X3X3X3X3X3X3X3X3X3X3X3X3X3X3X3X3X3X3X3X3X3X3X3X3X3X3X3X3X3X3X3X3X3X3X3X3X3X3X3X3X3X3X3X3X3X3X3X3X3X3X3X3X3X3X3X3X3X3X3X3X3X3X3X"
};
